<svg width="46" height="38" viewBox="0 0 46 38" fill="none" xmlns="http://www.w3.org/2000/svg">
<path d="M19.113 38C8.57593 38 0 29.4825 0 19C0 8.51751 8.57593 0 19.113 0C24.2181 0 29.0196 1.97272 32.6306 5.5623C32.7784 5.70928 32.8562 5.90269 32.8562 6.11156C32.8562 6.32044 32.7706 6.51384 32.6306 6.66083L20.9962 18.2264H37.4555C37.8835 18.2264 38.2337 18.5745 38.2337 19C38.2337 29.4748 29.6578 38 19.1207 38H19.113ZM19.113 1.54723C9.43197 1.54723 1.55643 9.37622 1.55643 19C1.55643 28.6238 9.43197 36.4528 19.113 36.4528C28.794 36.4528 36.2493 29.0415 36.6539 19.7736H19.113C18.8017 19.7736 18.5137 19.5879 18.397 19.294C18.2725 19.0077 18.3425 18.6751 18.5682 18.4507L30.973 6.1193C27.7278 3.16409 23.5488 1.5395 19.1207 1.5395L19.113 1.54723Z" fill="#1D1D1B"/>
<path d="M44.5313 16.9806H26.1965C25.8852 16.9806 25.5973 16.7949 25.4805 16.5009C25.356 16.2147 25.4261 15.882 25.6517 15.6577L38.609 2.76925C38.9125 2.46754 39.4028 2.46754 39.7063 2.76925C43.3172 6.35883 45.3017 11.132 45.3017 16.207C45.3017 16.6324 44.9515 16.9806 44.5235 16.9806H44.5313ZM28.072 15.4333H43.7375C43.5585 11.3177 41.9476 7.45736 39.146 4.42479L28.072 15.4333Z" fill="#1D1D1B"/>
</svg>
