<svg width="56" height="39" viewBox="0 0 56 39" fill="none" xmlns="http://www.w3.org/2000/svg">
<path d="M39.2694 22.5469V21.0162C39.3996 21.0075 39.5038 20.9902 39.608 20.9902C40.5455 20.9902 41.4829 20.9902 42.4552 20.9902V22.5469H39.2607H39.2694Z" fill="black"/>
<path d="M44.097 12.9043V14.4436H42.5259V12.9043H44.097Z" fill="black"/>
<path d="M47.4132 33.1574C47.4132 34.5237 46.2847 35.648 44.9305 35.622C43.5851 35.6047 42.5 34.4978 42.5 33.1574C42.5 31.791 43.6198 30.6841 44.9913 30.7014C46.3541 30.7187 47.4132 31.7997 47.4218 33.1574H47.4132ZM44.9479 32.3185C44.4965 32.3272 44.1319 32.7077 44.1319 33.1574C44.1319 33.633 44.5312 34.0222 45 33.9962C45.4427 33.9703 45.7986 33.5898 45.7812 33.1314C45.7725 32.6731 45.3906 32.3099 44.9392 32.3185H44.9479Z" fill="black"/>
<path d="M12.3231 33.2093C12.297 34.5497 11.1772 35.648 9.84043 35.622C8.48628 35.6047 7.36649 34.4459 7.39254 33.1055C7.41858 31.7737 8.54704 30.6841 9.89252 30.7014C11.2727 30.7187 12.3491 31.8342 12.3231 33.2093ZM9.8578 32.3185C9.41509 32.3185 9.03315 32.7163 9.03315 33.1574C9.03315 33.6244 9.44113 34.0222 9.90988 33.9962C10.3526 33.9789 10.7172 33.5811 10.7085 33.1314C10.6998 32.6817 10.3092 32.3099 9.86648 32.3099L9.8578 32.3185Z" fill="black"/>
<path d="M19.7184 30.7014C21.0899 30.7187 22.201 31.8515 22.175 33.2006C22.1489 34.5237 21.0118 35.6393 19.6924 35.622C18.3295 35.6134 17.2358 34.4805 17.2531 33.1141C17.2705 31.7651 18.3729 30.6841 19.7271 30.7014H19.7184ZM19.6837 32.3185C19.2323 32.3272 18.8677 32.7077 18.8677 33.166C18.8677 33.6157 19.2496 33.9962 19.6924 34.0049C20.1611 34.0049 20.5517 33.6071 20.5344 33.1314C20.517 32.6904 20.1264 32.3099 19.6837 32.3185Z" fill="black"/>
<path d="M35.9624 6.3662H36.5874C40.1724 6.3662 43.7575 6.3662 47.3425 6.35755C47.7418 6.35755 47.9501 6.46998 48.1411 6.82454C49.9814 10.275 51.8477 13.7169 53.6879 17.1674C53.8268 17.4269 53.9049 17.7382 53.9049 18.0322C53.9223 20.9552 53.9136 23.8782 53.9136 26.8012C53.9136 27.0001 53.9136 27.199 53.9136 27.4671H55.615V32.3358H50.6237C50.78 34.4459 50.1723 36.2014 48.5664 37.5418C47.4206 38.4931 46.0838 38.8996 44.5821 38.8131C41.3443 38.6228 39.313 36.1841 39.261 32.3791H25.3808C25.5197 35.3366 24.3565 37.5505 21.5093 38.5104C18.7403 39.4444 16.4833 38.4499 14.7906 36.0977C13.0285 38.5018 10.7195 39.4876 7.87228 38.4412C5.13792 37.4294 4.05286 35.2502 4.19175 32.3618H0.0424699V20.9811H1.631V27.4498H3.27161C3.27161 27.2336 3.27161 27.0606 3.27161 26.8876C3.27161 22.14 3.27161 17.4009 3.27161 12.6532C3.27161 12.6013 3.27161 12.5408 3.27161 12.4889C3.26293 11.8663 2.94176 11.4944 2.43829 11.503C1.95218 11.5117 1.64836 11.8749 1.64836 12.463C1.64836 13.9936 1.64836 15.533 1.64836 17.0636C1.64836 17.7814 1.64836 18.4992 1.64836 19.2689H0.0337894C0.0251089 19.1132 0.00774788 18.9575 0.00774788 18.8019C0.00774788 16.6918 -0.0182936 14.5817 0.0251089 12.4716C0.0337894 11.9614 0.233441 11.4166 0.450453 10.9409C1.25774 9.16812 2.10843 7.42125 2.94176 5.66572C3.74904 3.95344 4.55633 2.24116 5.33757 0.520229C5.51986 0.10513 5.73688 -0.041884 6.18826 0.0100033C8.10665 0.260792 10.0337 0.468341 11.9521 0.701835C13.3149 0.866144 14.6865 1.02181 16.0406 1.20341C16.3618 1.24665 16.683 1.31583 16.9694 1.4542C19.7385 2.74274 22.525 3.97938 25.2506 5.36305C26.5006 5.99434 27.6117 6.90237 28.7749 7.69798C30.6239 8.96057 32.4641 10.2405 34.3652 11.5376C33.6707 13.0164 32.9763 14.4952 32.2732 15.9913C32.386 16.0432 32.4815 16.0951 32.577 16.1297C33.7141 16.5102 34.3478 17.3663 34.3565 18.5597C34.3565 21.3184 34.3565 24.0771 34.3565 26.8444C34.3565 27.0347 34.3565 27.2336 34.3565 27.4498H35.971V6.3662H35.9624ZM37.6377 7.97471V27.4411H52.2557V25.8672C51.9345 25.8499 51.6307 25.8499 51.3268 25.824C50.0161 25.7115 49.0439 24.6565 49.0612 23.3766C49.0873 22.0794 50.0682 21.0676 51.3963 20.9984C51.6741 20.9811 51.9605 20.9984 52.247 20.9984V19.338H47.4119V17.7209H52.0734C52.0386 17.5912 52.03 17.522 52.0039 17.4614C50.9362 15.4811 49.8772 13.4921 48.7835 11.5203C48.6967 11.3647 48.4189 11.2436 48.2279 11.2436C45.9449 11.2263 43.662 11.2263 41.379 11.235C41.2227 11.235 41.0578 11.2523 40.9016 11.2609V17.7555H45.7192V19.3121H39.261V9.58322H47.7505C47.5248 9.15082 47.3078 8.81356 47.1602 8.45899C46.9953 8.06119 46.7349 7.96606 46.3182 7.96606C43.6186 7.98336 40.9189 7.97471 38.228 7.97471C38.037 7.97471 37.8373 7.97471 37.629 7.97471H37.6377ZM17.1517 21.2838C19.4781 16.3545 21.7784 11.4858 24.0961 6.5824C21.5961 5.40629 19.1656 4.27341 16.7177 3.12324C14.3913 8.06119 12.0823 12.93 9.77331 17.8247C12.2472 18.9835 14.6691 20.1163 17.1517 21.2838ZM18.6882 21.8373C21.3705 22.5896 23.9833 23.3247 26.6395 24.0684C27.1517 22.9874 27.6464 21.9411 28.1499 20.8687C28.0197 20.8255 27.9329 20.7995 27.8548 20.7649C26.6482 20.3066 25.9885 19.2083 26.2055 17.989C26.4051 16.8388 27.4294 16.0345 28.7055 16.0172C29.1742 16.0172 29.643 16.0259 30.1204 16.0086C30.2593 16.0086 30.4676 15.9308 30.5197 15.8356C31.1273 14.599 31.7089 13.3451 32.3079 12.0825C30.0336 10.5085 27.794 8.96922 25.511 7.40395C23.2281 12.2381 20.9798 17.0031 18.6882 21.8373ZM8.43651 16.8474C10.6674 12.1257 12.8722 7.45584 15.0944 2.76868C14.9122 2.72544 14.782 2.6822 14.6431 2.66491C12.3861 2.39682 10.1205 2.12009 7.85492 1.87795C6.56152 1.73958 6.55284 1.76553 5.99729 2.95029C4.91223 5.24198 3.83585 7.53367 2.7421 9.8513C2.88967 9.90319 3.00252 9.94643 3.12405 9.98102C4.19175 10.301 4.86883 11.1917 4.90355 12.3073C4.91223 12.61 4.89487 12.9213 4.90355 13.224C4.90355 13.3537 4.93827 13.5267 5.02507 13.6131C6.14486 14.6855 7.26464 15.7492 8.43651 16.8561V16.8474ZM29.4173 27.4844V22.0102C28.7489 23.4198 28.1412 24.6997 27.5162 26.0056C25.3635 25.4002 23.2368 24.8208 21.1274 24.2068C19.5562 23.7485 17.9417 23.3507 16.4399 22.7194C13.9486 21.6643 11.5181 20.4623 9.07887 19.2861C8.54068 19.0267 8.02853 18.6635 7.57714 18.2657C6.69173 17.4874 5.84972 16.6485 4.92959 15.7751V22.6156C6.50944 22.6156 8.04589 22.6329 9.58233 22.6069C10.0598 22.5983 10.3809 22.7453 10.7108 23.0826C12.0389 24.4403 13.4018 25.7634 14.7299 27.1125C14.9903 27.3719 15.2507 27.5016 15.624 27.493C20.025 27.4844 24.426 27.493 28.827 27.493C29.0093 27.493 29.1829 27.493 29.4086 27.493L29.4173 27.4844ZM44.9727 29.1274C42.7158 29.1188 40.8755 30.9262 40.8755 33.1574C40.8755 35.3799 42.7245 37.2219 44.9554 37.2219C47.1689 37.2219 49.0005 35.3972 49.0178 33.2006C49.0265 30.9435 47.2383 29.1361 44.9814 29.1274H44.9727ZM9.84275 29.1274C7.62054 29.1361 5.80632 30.9435 5.78896 33.1487C5.78028 35.3626 7.62922 37.2132 9.86011 37.2219C12.091 37.2219 13.9226 35.3972 13.9226 33.1487C13.9226 30.8916 12.117 29.1102 9.84275 29.1188V29.1274ZM19.7038 29.1274C17.4382 29.1274 15.6413 30.9176 15.6413 33.1747C15.6413 35.3972 17.4382 37.1959 19.6691 37.2219C21.8826 37.2478 23.7576 35.4058 23.7749 33.1833C23.7923 30.9608 21.952 29.1274 19.7038 29.1274ZM40.8582 29.1274H23.801C24.1395 29.6377 24.4433 30.122 24.7906 30.5716C24.8687 30.6754 25.0683 30.7187 25.2159 30.7187C29.9641 30.7187 34.7037 30.7187 39.4519 30.7187C39.6082 30.7187 39.8165 30.6408 39.9033 30.5284C40.2418 30.0874 40.537 29.6117 40.8668 29.1188L40.8582 29.1274ZM12.8202 27.4498C12.0389 26.6801 11.3098 26.0747 10.7195 25.3483C9.96428 24.4143 9.07887 24.0771 7.89832 24.1982C6.91742 24.2933 5.91917 24.2154 4.92959 24.2154V27.4498H12.8202ZM32.7072 27.4498C32.7072 24.4143 32.7072 21.4222 32.7072 18.43C32.7072 17.9803 32.412 17.7036 31.9433 17.669C31.6742 17.6517 31.4138 17.669 31.1186 17.669V27.4584H32.7159L32.7072 27.4498ZM53.9918 30.7273V29.1361H49.0439C49.3737 29.6204 49.6602 30.0701 49.9814 30.5025C50.0595 30.6149 50.2331 30.7187 50.3633 30.7187C51.5525 30.736 52.7418 30.7273 53.9918 30.7273ZM1.66572 29.1188V30.7273C2.64662 30.7273 3.59279 30.7273 4.54765 30.7273C4.63445 30.7273 4.7473 30.6495 4.79938 30.5716C5.12056 30.1133 5.43306 29.6377 5.7716 29.1274H1.66572V29.1188ZM29.4259 17.6517C28.8791 17.7209 28.2714 17.4442 27.9416 18.0495C27.8201 18.2743 27.8201 18.6722 27.9416 18.8883C28.2714 19.4678 28.8704 19.2516 29.4173 19.2689V17.6431L29.4259 17.6517ZM52.2557 24.2154V22.6069C51.7435 22.6242 51.1793 22.434 50.8668 22.9615C50.7366 23.1863 50.7279 23.6187 50.8581 23.8436C51.1532 24.3711 51.7175 24.2327 52.2557 24.2154ZM13.9052 29.1188C14.2438 29.5425 14.5129 29.8885 14.7993 30.243C15.0944 29.8625 15.3549 29.5166 15.6587 29.1188H13.9052Z" fill="black"/>
</svg>
