<svg width="41" height="42" viewBox="0 0 41 42" fill="none" xmlns="http://www.w3.org/2000/svg">
<path d="M16.3099 25.1664C15.6659 25.3657 15.072 25.5366 14.4995 25.743C14.3707 25.7857 14.2705 25.9636 14.199 26.0989C11.716 30.8607 9.23302 35.6155 6.77866 40.3916C6.44951 41.0322 5.99871 41.4023 5.28315 41.5162C4.55329 41.6372 3.83058 41.8151 3.10786 41.9646C2.42093 42.107 1.7984 41.8151 1.51933 41.1745C1.16155 40.3631 0.810931 39.5445 0.488931 38.7189C0.138308 37.8149 0.767997 36.6191 1.70538 36.3557C2.01306 36.2703 2.4424 36.2276 2.57835 36.0141C2.68569 35.8504 2.43524 35.4446 2.33506 35.1528C1.98444 34.0851 2.88604 32.4124 3.97369 32.1135C4.56521 31.9521 4.75841 31.582 4.55329 31.0031C4.15258 29.8714 5.03986 28.2058 6.21338 27.8855C7.06489 27.6506 7.0792 27.6506 6.7572 26.8107C6.55684 26.2839 6.59262 25.8071 6.85738 25.3159C7.27955 24.5401 7.66595 23.7358 8.09529 22.9599C8.24555 22.6965 8.24555 22.4617 8.15253 22.1912C7.6588 20.7462 7.19369 19.2942 6.69995 17.8422C6.32071 16.7175 6.38511 15.6427 6.9504 14.5964C7.28671 13.97 7.60155 13.3365 7.93786 12.7102C8.15969 12.2831 8.48169 12.1621 8.83947 12.3614C9.18293 12.5465 9.24733 12.8525 9.02551 13.2796C8.70351 13.9131 8.38151 14.5466 8.0452 15.173C7.65164 15.899 7.5944 16.6392 7.85915 17.4222C8.39582 19.0095 8.91102 20.6039 9.45484 22.1912C9.57649 22.5399 9.56218 22.8389 9.38329 23.1663C8.91102 24.0418 8.46022 24.9387 7.99511 25.8142C7.88062 26.0348 7.87347 26.2199 7.94502 26.4619C8.05951 26.8605 8.15969 27.2947 8.1096 27.7004C8.00942 28.4976 7.37258 28.8321 6.67133 29.0457C6.00586 29.245 5.59084 30.0849 5.76973 30.754C5.88422 31.1739 5.95578 31.6508 5.87706 32.0708C5.74826 32.7612 5.15435 33.053 4.52466 33.2452C3.78049 33.473 3.36546 34.2773 3.61591 35.0318C4.03093 36.2703 3.55151 37.1458 2.27066 37.4946C1.64813 37.6654 1.49786 37.9857 1.74831 38.5836C2.02022 39.2242 2.29929 39.8648 2.55689 40.5054C2.64991 40.7403 2.77155 40.8044 3.022 40.7403C3.68746 40.5766 4.36009 40.4271 5.03271 40.3133C5.36186 40.2563 5.5336 40.1068 5.67671 39.8292C8.18115 34.9891 10.6999 30.1561 13.2044 25.3159C13.419 24.9031 13.6981 24.6753 14.1417 24.5543C15.7231 24.1059 17.2902 23.6219 18.8716 23.1592C19.63 22.9386 20.1739 22.4901 20.5316 21.7926C21.469 19.9846 22.4136 18.1838 23.3438 16.3759C24.0522 14.995 23.6085 13.5714 22.2418 12.8525C20.1739 11.7564 18.0916 10.6745 16.0165 9.59255C15.9235 9.54273 15.8233 9.50714 15.6945 9.44308V11.4574C16.131 11.493 16.5317 11.493 16.9109 11.5713C18.4064 11.8916 19.5299 13.3935 19.4297 14.8882C19.3224 16.4613 18.1417 17.7496 16.6676 17.8991C14.9861 18.0699 13.5693 17.1233 13.1614 15.5217C12.8323 14.212 13.2115 13.0874 14.2419 12.2119C14.4637 12.0269 14.5067 11.856 14.4924 11.5856C14.4637 10.767 14.4637 9.94845 14.4924 9.13701C14.4995 8.88077 14.4494 8.73841 14.2133 8.63164C12.9539 8.04798 11.5514 8.4964 10.886 9.71356C10.7858 9.8915 10.7071 10.0837 10.5997 10.2545C10.4065 10.5677 10.0988 10.6531 9.784 10.4894C9.48347 10.3328 9.37613 10.0267 9.51924 9.68508C10.521 7.25789 12.9539 6.67423 14.6426 7.47855C14.6784 7.49278 14.7213 7.4999 14.7857 7.51414C15.8948 4.10468 18.0916 1.70596 21.5191 0.538626C23.952 -0.294164 26.3777 -0.137571 28.7534 0.844694C33.6192 2.85905 36.7032 8.96618 33.9769 14.8242C35.4438 15.8064 36.9107 16.7887 38.3776 17.771C38.7425 18.013 39.1075 18.255 39.4724 18.5041C40.4813 19.1874 40.7962 20.3263 40.2667 21.3299C39.7586 22.2979 38.4992 22.7393 37.4188 22.3264C37.2971 22.2766 37.1755 22.2268 37.0109 22.1556C37.0109 23.4226 37.0109 24.654 37.0109 25.8782C37.0109 26.4121 37.018 26.9459 37.0109 27.4797C37.0037 27.8926 36.7676 28.1346 36.4241 28.1275C36.0807 28.1204 35.8588 27.8712 35.8588 27.4655C35.8588 25.5366 35.8517 23.6076 35.8588 21.6858C35.8588 21.4153 35.7801 21.2445 35.5512 21.0879C32.7605 19.2159 29.977 17.3368 27.2006 15.4506C26.9716 15.294 26.8071 15.2584 26.5924 15.4506C26.4493 15.5787 26.2847 15.6926 26.113 15.7709C24.5745 16.4542 23.8661 17.8066 23.2794 19.3013C23.6014 19.3369 23.9377 19.3725 24.2883 19.4152C24.3456 19.2657 24.3885 19.1447 24.4386 19.0166C24.8751 17.835 26.0844 17.1375 27.3223 17.3439C28.4815 17.5361 29.3902 18.5895 29.4332 19.7925C29.4761 21.0025 28.646 22.1058 27.4654 22.3976C26.3062 22.6894 25.0396 22.0844 24.5244 20.9669C24.4028 20.6964 24.2597 20.611 23.9806 20.611C23.6515 20.611 23.3152 20.5825 23.0003 20.4971C22.6855 20.4117 22.5638 20.5327 22.4422 20.7818C22.1774 21.3228 21.8912 21.8495 21.6121 22.3834C21.0898 23.3799 20.2955 24.0418 19.2007 24.3408C18.7356 24.4689 18.2776 24.6041 17.8125 24.7251C17.605 24.775 17.5263 24.8746 17.5335 25.0953C17.5335 27.5723 17.5335 30.0422 17.5406 32.5192C17.5406 33.0744 17.8626 33.473 18.3492 33.4801C19.995 33.5015 21.6408 33.4872 23.3509 33.4872C23.3509 33.3235 23.3509 33.1812 23.3509 33.0388C23.3509 31.1526 23.3509 29.2663 23.3509 27.3801C23.3509 26.6825 23.5298 26.4975 24.2168 26.4975C25.9055 26.4975 27.5942 26.4975 29.29 26.4975C29.9555 26.4975 30.1201 26.6612 30.1201 27.316C30.1201 29.2023 30.1201 31.0885 30.1201 32.9747C30.1201 33.1385 30.1201 33.295 30.1201 33.4943C30.5351 33.4943 30.9072 33.4943 31.2721 33.4943C32.4099 33.4943 33.5548 33.4943 34.6925 33.4943C35.4224 33.4943 35.773 33.1385 35.773 32.4124C35.773 31.8359 35.773 31.2665 35.773 30.6899C35.773 30.2486 35.9805 30.0279 36.374 30.0279C36.7604 30.0279 37.0037 30.2486 36.9966 30.6828C36.9966 31.4586 37.0252 32.2487 36.925 33.0103C36.7891 34.014 35.8875 34.7257 34.8642 34.7257C29.3831 34.7257 23.8948 34.7257 18.4136 34.7257C17.2258 34.7257 16.3027 33.8004 16.2956 32.6117C16.2812 30.3269 16.2956 28.0492 16.2956 25.7643C16.2956 25.6006 16.2956 25.4369 16.2956 25.1949L16.3099 25.1664ZM15.8877 8.12627C17.2472 8.83806 18.5639 9.51426 19.8662 10.2118C21.0826 10.8595 22.2919 11.5357 23.5084 12.1906C23.5942 12.2333 23.766 12.1977 23.859 12.1407C24.4529 11.7706 25.0325 11.3791 25.6121 10.9948C26.4994 10.4111 27.3724 10.4111 28.2596 11.009C29.6764 11.9699 31.1076 12.9166 32.5315 13.8633C32.6532 13.9416 32.7748 14.0127 32.9465 14.1124C34.2846 10.7528 34.0485 7.60667 31.8446 4.77376C29.5763 1.85543 26.4922 0.702337 22.8715 1.45683C19.2365 2.21132 16.9825 4.57446 15.8805 8.12627H15.8877ZM24.9896 15.0164C25.4404 14.7174 25.9055 14.4327 26.3491 14.1195C26.7212 13.849 27.0432 13.849 27.4296 14.1195C28.4171 14.8099 29.426 15.4648 30.4278 16.1339C32.8535 17.7567 35.2721 19.3867 37.7121 20.9883C37.9483 21.1448 38.2989 21.2303 38.5851 21.2018C38.9429 21.1662 39.1862 20.8886 39.2506 20.5114C39.3293 20.0914 39.1719 19.7711 38.8069 19.5362C37.3615 18.5753 35.9161 17.6073 34.4707 16.6392C32.1809 15.1089 29.8911 13.5786 27.6085 12.0411C27.2722 11.8133 26.9144 11.6567 26.5352 11.8845C25.8196 12.3187 25.1327 12.7814 24.4815 13.2013C24.6532 13.8277 24.8107 14.3971 24.9824 15.0164H24.9896ZM24.6103 27.7218V33.4516H28.8679V27.7218H24.6103ZM15.9664 12.76C16.3099 13.9843 16.8608 15.0662 17.648 16.0342C18.2204 15.4648 18.342 14.5893 17.9628 13.8206C17.5836 13.0447 16.8752 12.6532 15.9664 12.76ZM14.7643 13.4362C14.1847 14.0127 14.0916 14.9737 14.5711 15.7566C15.0004 16.4613 15.8448 16.8385 16.4244 16.6464C15.8805 15.5858 15.3224 14.5181 14.7643 13.4362ZM28.1809 20.0629C27.3437 20.2551 26.5566 20.4331 25.7337 20.6252C26.0772 21.0808 26.5137 21.2872 27.0575 21.1947C27.6872 21.095 28.0235 20.6893 28.1738 20.0629H28.1809ZM25.6121 19.3939C26.3634 19.2159 27.0217 19.0664 27.7516 18.8956C26.9788 18.2763 26.0128 18.4899 25.6121 19.3939Z" fill="black"/>
<path d="M4.82924 38.7198C4.2568 38.7412 3.94911 38.3284 4.07791 37.9369C4.12084 37.7945 4.20671 37.6664 4.27827 37.5312C6.32475 33.6092 8.36409 29.6873 10.4106 25.7653C10.4821 25.623 10.5537 25.4166 10.6825 25.3667C10.8972 25.2813 11.1834 25.2173 11.3909 25.2884C11.67 25.381 11.7701 25.6657 11.67 25.9718C11.6342 26.0856 11.5769 26.1995 11.5197 26.3063C9.45889 30.2638 7.39809 34.2214 5.32298 38.1789C5.19418 38.4209 4.95089 38.5988 4.8364 38.7198H4.82924Z" fill="black"/>
</svg>
