<svg width="75" height="52" viewBox="0 0 75 52" fill="none" xmlns="http://www.w3.org/2000/svg">
<path d="M52.285 30.0202V27.9822C52.4584 27.9707 52.5971 27.9476 52.7358 27.9476C53.984 27.9476 55.2323 27.9476 56.5267 27.9476V30.0202H52.2734H52.285Z" fill="white"/>
<path d="M58.715 17.1812V19.2308H56.623V17.1812H58.715Z" fill="white"/>
<path d="M63.1297 44.1487C63.1297 45.968 61.6271 47.4649 59.8241 47.4303C58.0326 47.4073 56.5879 45.9335 56.5879 44.1487C56.5879 42.3294 58.0789 40.8556 59.905 40.8786C61.7196 40.9016 63.1297 42.3409 63.1412 44.1487H63.1297ZM59.8472 43.0318C59.2462 43.0433 58.7608 43.55 58.7608 44.1487C58.7608 44.782 59.2924 45.3002 59.9166 45.2656C60.506 45.2311 60.9799 44.7244 60.9568 44.1142C60.9452 43.5039 60.4367 43.0203 59.8357 43.0318H59.8472Z" fill="white"/>
<path d="M16.4092 44.2178C16.3746 46.0026 14.8836 47.4649 13.1037 47.4303C11.3006 47.4073 9.80967 45.8644 9.84434 44.0796C9.87902 42.3064 11.3815 40.8556 13.173 40.8786C15.0107 40.9016 16.4439 42.387 16.4092 44.2178ZM13.1268 43.0318C12.5373 43.0318 12.0288 43.5615 12.0288 44.1487C12.0288 44.7705 12.572 45.3002 13.1961 45.2656C13.7856 45.2426 14.271 44.7129 14.2595 44.1142C14.2479 43.5154 13.7278 43.0203 13.1383 43.0203L13.1268 43.0318Z" fill="white"/>
<path d="M26.2554 40.8786C28.0815 40.9016 29.5609 42.41 29.5263 44.2063C29.4916 45.968 27.9775 47.4534 26.2207 47.4304C24.4061 47.4188 22.9498 45.9104 22.9729 44.0912C22.996 42.2949 24.4639 40.8556 26.2669 40.8786H26.2554ZM26.2091 43.0318C25.6081 43.0433 25.1227 43.55 25.1227 44.1602C25.1227 44.759 25.6312 45.2656 26.2207 45.2771C26.8448 45.2771 27.3649 44.7475 27.3418 44.1142C27.3187 43.5269 26.7986 43.0203 26.2091 43.0318Z" fill="white"/>
<path d="M47.8831 8.47646H48.7153C53.4887 8.47646 58.2621 8.47646 63.0355 8.46495C63.5672 8.46495 63.8446 8.61463 64.0988 9.08673C66.5491 13.681 69.0341 18.2638 71.4843 22.858C71.6693 23.2035 71.7733 23.618 71.7733 24.0095C71.7964 27.9014 71.7848 31.7933 71.7848 35.6852C71.7848 35.95 71.7848 36.2148 71.7848 36.5718H74.0502V43.0544H67.4044C67.6124 45.864 66.8034 48.2014 64.6652 49.9862C63.1395 51.2527 61.3596 51.7939 59.3601 51.6788C55.049 51.4255 52.3445 48.1784 52.2751 43.112H33.794C33.979 47.05 32.4302 49.9977 28.6392 51.2758C24.9523 52.5193 21.9472 51.1952 19.6934 48.0632C17.3472 51.2643 14.2728 52.5769 10.4818 51.1837C6.84103 49.8365 5.39629 46.9348 5.58122 43.089H0.0565477V27.9359H2.17164V36.5488H4.35608C4.35608 36.2609 4.35608 36.0306 4.35608 35.8003C4.35608 29.4789 4.35608 23.1689 4.35608 16.8475C4.35608 16.7784 4.35608 16.6978 4.35608 16.6287C4.34453 15.7997 3.91688 15.3045 3.24653 15.3161C2.59928 15.3276 2.19476 15.8112 2.19476 16.5942C2.19476 18.6322 2.19476 20.6818 2.19476 22.7199C2.19476 23.6756 2.19476 24.6313 2.19476 25.6561H0.0449898C0.0334319 25.4488 0.0103161 25.2415 0.0103161 25.0343C0.0103161 22.2247 -0.0243575 19.4152 0.0334319 16.6057C0.0449898 15.9263 0.310821 15.2009 0.599769 14.5676C1.67465 12.2072 2.80733 9.88123 3.91688 7.54379C4.99177 5.26392 6.06665 2.98405 7.10686 0.692673C7.34958 0.139979 7.63853 -0.0557676 8.23954 0.0133192C10.7938 0.347239 13.3597 0.623587 15.914 0.934477C17.7286 1.15325 19.5547 1.36051 21.3577 1.60232C21.7854 1.65989 22.213 1.75201 22.5944 1.93624C26.2814 3.65189 29.9915 5.29846 33.6207 7.14078C35.285 7.98134 36.7644 9.19036 38.3132 10.2497C40.775 11.9308 43.2253 13.6349 45.7565 15.3621C44.8318 17.3311 43.9072 19.3001 42.971 21.2921C43.1213 21.3612 43.2484 21.4302 43.3755 21.4763C44.8896 21.9829 45.7333 23.1229 45.7449 24.7119C45.7449 28.385 45.7449 32.0581 45.7449 35.7427C45.7449 35.9961 45.7449 36.2609 45.7449 36.5488H47.8947V8.47646H47.8831ZM50.1138 10.6182V36.5372H69.5773V34.4416C69.1496 34.4186 68.7451 34.4186 68.3406 34.384C66.5953 34.2343 65.3009 32.8296 65.324 31.1254C65.3586 29.3983 66.6647 28.0511 68.433 27.959C68.8029 27.9359 69.1843 27.959 69.5657 27.959V25.7482H63.128V23.595H69.3346C69.2883 23.4223 69.2768 23.3301 69.2421 23.2495C67.8205 20.6127 66.4104 17.9644 64.9541 15.3391C64.8385 15.1318 64.4687 14.9706 64.2144 14.9706C61.1747 14.9476 58.135 14.9476 55.0952 14.9591C54.8872 14.9591 54.6676 14.9821 54.4595 14.9937V23.641H60.8742V25.7136H52.2751V12.7598H63.5787C63.2782 12.1841 62.9893 11.7351 62.7928 11.263C62.5732 10.7333 62.2265 10.6066 61.6717 10.6066C58.0772 10.6297 54.4827 10.6182 50.8997 10.6182C50.6454 10.6182 50.3796 10.6182 50.1022 10.6182H50.1138ZM22.8372 28.3389C25.9347 21.7757 28.9975 15.293 32.0835 8.76432C28.7548 7.19835 25.5186 5.68996 22.2593 4.15853C19.1617 10.7333 16.0873 17.216 13.0129 23.7331C16.3069 25.2761 19.5316 26.7845 22.8372 28.3389ZM24.8829 29.0759C28.4543 30.0776 31.9332 31.0564 35.4699 32.0466C36.1519 30.6073 36.8106 29.214 37.481 27.7862C37.3076 27.7287 37.1921 27.6941 37.088 27.6481C35.4815 27.0378 34.6031 25.5755 34.892 23.9519C35.1579 22.4205 36.5217 21.3496 38.2207 21.3266C38.8448 21.3266 39.469 21.3381 40.1046 21.3151C40.2896 21.3151 40.567 21.2115 40.6363 21.0848C41.4454 19.4382 42.2197 17.7686 43.0172 16.0875C39.9891 13.9919 37.0071 11.9423 33.9674 9.8582C30.9277 16.2948 27.9342 22.6393 24.8829 29.0759ZM11.233 22.432C14.2034 16.1451 17.1391 9.92728 20.0979 3.68644C19.8552 3.62887 19.6819 3.57129 19.4969 3.54826C16.4919 3.19131 13.4753 2.82285 10.4587 2.50045C8.73653 2.31621 8.72497 2.35076 7.98526 3.92824C6.54053 6.97958 5.10735 10.0309 3.65105 13.1168C3.84754 13.1859 3.99779 13.2435 4.1596 13.2895C5.58122 13.7155 6.48274 14.9015 6.52897 16.3869C6.54053 16.7899 6.51741 17.2044 6.52897 17.6074C6.52897 17.7802 6.5752 18.0104 6.69078 18.1256C8.18175 19.5534 9.67272 20.9697 11.233 22.4435V22.432ZM39.1685 36.5948V29.3062C38.2785 31.183 37.4695 32.8872 36.6373 34.6258C33.7709 33.8198 30.9392 33.0484 28.1307 32.2308C26.0387 31.6206 23.8889 31.0909 21.8894 30.2503C18.5723 28.8456 15.3361 27.2451 12.0883 25.6791C11.3717 25.3337 10.6898 24.85 10.0888 24.3204C8.90989 23.2841 7.78878 22.1672 6.56364 21.0042V30.1122C8.66718 30.1122 10.7129 30.1352 12.7587 30.1006C13.3944 30.0891 13.822 30.2849 14.2612 30.7339C16.0296 32.5417 17.8441 34.3034 19.6125 36.0997C19.9592 36.4451 20.306 36.6178 20.803 36.6063C26.6628 36.5948 32.5227 36.6063 38.3825 36.6063C38.6252 36.6063 38.8564 36.6063 39.1569 36.6063L39.1685 36.5948ZM59.8802 38.7826C56.8752 38.7711 54.4249 41.1776 54.4249 44.1483C54.4249 47.1075 56.8867 49.5601 59.8571 49.5601C62.8044 49.5601 65.2431 47.1306 65.2662 44.2059C65.2777 41.2006 62.8968 38.7941 59.8918 38.7826H59.8802ZM13.1054 38.7826C10.1466 38.7941 7.73099 41.2006 7.70787 44.1368C7.69632 47.0845 10.1581 49.5486 13.1285 49.5601C16.0989 49.5601 18.5376 47.1306 18.5376 44.1368C18.5376 41.1315 16.1336 38.7595 13.1054 38.771V38.7826ZM26.2352 38.7826C23.2186 38.7826 20.8261 41.1661 20.8261 44.1713C20.8261 47.1306 23.2186 49.5256 26.1889 49.5601C29.1362 49.5947 31.6327 47.1421 31.6558 44.1829C31.6789 41.2236 29.2287 38.7826 26.2352 38.7826ZM54.4018 38.7826H31.6905C32.1413 39.4619 32.5458 40.1067 33.0081 40.7055C33.1121 40.8437 33.378 40.9012 33.5744 40.9012C39.8966 40.9012 46.2072 40.9012 52.5294 40.9012C52.7374 40.9012 53.0148 40.7976 53.1304 40.6479C53.5812 40.0607 53.9741 39.4274 54.4133 38.771L54.4018 38.7826ZM17.0698 36.5488C16.0296 35.524 15.0587 34.718 14.2728 33.7507C13.2672 32.5072 12.0883 32.0581 10.5164 32.2193C9.2104 32.346 7.88124 32.2423 6.56364 32.2423V36.5488H17.0698ZM43.5489 36.5488C43.5489 32.5072 43.5489 28.5232 43.5489 24.5392C43.5489 23.9404 43.1559 23.5719 42.5318 23.5259C42.1735 23.5029 41.8268 23.5259 41.4338 23.5259V36.5603H43.5605L43.5489 36.5488ZM71.8889 40.9127V38.7941H65.3009C65.7401 39.4389 66.1215 40.0376 66.5491 40.6134C66.6531 40.7631 66.8843 40.9012 67.0577 40.9012C68.6411 40.9243 70.2245 40.9127 71.8889 40.9127ZM2.21787 38.771V40.9127C3.52392 40.9127 4.78373 40.9127 6.05509 40.9127C6.17067 40.9127 6.32093 40.8091 6.39027 40.7055C6.81792 40.0952 7.234 39.4619 7.68476 38.7826H2.21787V38.771ZM39.18 23.5029C38.4519 23.595 37.6428 23.2265 37.2036 24.0325C37.0418 24.3319 37.0418 24.8616 37.2036 25.1494C37.6428 25.9209 38.4403 25.633 39.1685 25.6561V23.4913L39.18 23.5029ZM69.5773 32.2423V30.1006C68.8954 30.1237 68.1441 29.8704 67.728 30.5727C67.5546 30.8721 67.5431 31.4478 67.7165 31.7472C68.1094 32.4496 68.8607 32.2654 69.5773 32.2423ZM18.5145 38.771C18.9653 39.3353 19.3236 39.7958 19.705 40.2679C20.0979 39.7613 20.4447 39.3007 20.8492 38.771H18.5145Z" fill="white"/>
</svg>
