<svg width="65" height="55" viewBox="0 0 65 55" fill="none" xmlns="http://www.w3.org/2000/svg">
<path d="M27.3915 54.4592C12.2905 54.4592 0 42.2524 0 27.2296C0 12.2068 12.2905 0 27.3915 0C34.7078 0 41.5891 2.82718 46.7641 7.97153C46.976 8.18218 47.0875 8.45936 47.0875 8.75871C47.0875 9.05805 46.9648 9.33523 46.7641 9.54588L30.0905 26.1209H53.6789C54.2923 26.1209 54.7941 26.6198 54.7941 27.2296C54.7941 42.2414 42.5037 54.4592 27.4026 54.4592H27.3915ZM27.3915 2.21739C13.5173 2.21739 2.23058 13.4374 2.23058 27.2296C2.23058 41.0218 13.5173 52.2418 27.3915 52.2418C41.2657 52.2418 51.9502 41.6205 52.5301 28.3383H27.3915C26.9454 28.3383 26.5327 28.0722 26.3654 27.6509C26.187 27.2407 26.2874 26.7639 26.6108 26.4424L44.3885 8.76979C39.7377 4.53457 33.7486 2.20631 27.4026 2.20631L27.3915 2.21739Z" fill="white"/>
<path d="M63.8176 24.3361H37.5414C37.0953 24.3361 36.6826 24.0701 36.5153 23.6487C36.3369 23.2385 36.4372 22.7618 36.7607 22.4403L55.3302 3.96937C55.7652 3.53698 56.4678 3.53698 56.9028 3.96937C62.0777 9.11373 64.9217 15.9544 64.9217 23.2274C64.9217 23.8372 64.4198 24.3361 63.8064 24.3361H63.8176ZM40.2292 22.1187H62.68C62.4235 16.2205 60.1148 10.6881 56.0998 6.34199L40.2292 22.1187Z" fill="white"/>
</svg>
