<svg width="69" height="72" viewBox="0 0 69 72" fill="none" xmlns="http://www.w3.org/2000/svg">
<path d="M26.9959 42.6773C25.9038 43.0153 24.8966 43.3049 23.9259 43.655C23.7074 43.7274 23.5376 44.0292 23.4162 44.2585C19.2056 52.3337 14.9949 60.3968 10.8328 68.4961C10.2747 69.5824 9.5102 70.2101 8.29676 70.4032C7.05905 70.6084 5.83347 70.9101 4.6079 71.1636C3.44299 71.405 2.3873 70.9101 1.91406 69.8238C1.30734 68.4478 0.712755 67.0597 0.166707 65.6595C-0.427879 64.1265 0.639948 62.0987 2.22955 61.6521C2.75133 61.5072 3.4794 61.4348 3.70995 61.0727C3.89197 60.7951 3.46726 60.1071 3.29738 59.6122C2.7028 57.8016 4.23173 54.965 6.07616 54.4581C7.07927 54.1845 7.4069 53.5568 7.05905 52.5751C6.37952 50.6559 7.88419 47.8314 9.87423 47.2882C11.3182 46.8899 11.3425 46.8899 10.7964 45.4656C10.4567 44.5723 10.5174 43.7636 10.9663 42.9308C11.6823 41.6151 12.3375 40.2511 13.0656 38.9354C13.3204 38.4888 13.3204 38.0905 13.1627 37.6318C12.3254 35.1815 11.5366 32.7191 10.6994 30.2568C10.0562 28.3496 10.1655 26.527 11.1241 24.7526C11.6944 23.6904 12.2283 22.6161 12.7986 21.5539C13.1748 20.8297 13.7208 20.6245 14.3276 20.9625C14.91 21.2763 15.0192 21.7953 14.643 22.5196C14.097 23.5938 13.551 24.6681 12.9806 25.7303C12.3132 26.9615 12.2162 28.2168 12.6651 29.5446C13.5752 32.2363 14.4489 34.9401 15.3711 37.6318C15.5774 38.2233 15.5531 38.7302 15.2498 39.2855C14.4489 40.7701 13.6844 42.291 12.8957 43.7757C12.7015 44.1499 12.6894 44.4637 12.8108 44.8741C13.0049 45.5501 13.1748 46.2864 13.0898 46.9744C12.92 48.3263 11.84 48.8936 10.6508 49.2557C9.52233 49.5937 8.81853 51.018 9.12189 52.1526C9.31605 52.8648 9.43739 53.6735 9.30391 54.3857C9.08549 55.5565 8.07834 56.0514 7.01051 56.3773C5.74853 56.7635 5.04474 58.1275 5.46944 59.407C6.17324 61.5072 5.36023 62.9919 3.18817 63.5834C2.13248 63.8731 1.87766 64.4162 2.30236 65.4302C2.76347 66.5165 3.23671 67.6028 3.67355 68.6892C3.8313 69.0875 4.03758 69.1961 4.46228 69.0875C5.59078 68.8099 6.73142 68.5564 7.87205 68.3633C8.43023 68.2667 8.72146 68.0132 8.96415 67.5425C13.2112 59.3346 17.4825 51.1387 21.7295 42.9308C22.0936 42.2307 22.5668 41.8444 23.3191 41.6392C26.0008 40.8788 28.6583 40.058 31.34 39.2734C32.6262 38.8992 33.5484 38.1388 34.1552 36.9559C35.7448 33.89 37.3465 30.8361 38.924 27.7702C40.1253 25.4286 39.373 23.0145 37.0553 21.7953C33.5484 19.9365 30.0173 18.1018 26.4984 16.2671C26.3406 16.1826 26.1707 16.1222 25.9523 16.0136V19.4295C26.6925 19.4899 27.372 19.4899 28.0152 19.6227C30.5512 20.1658 32.4563 22.7127 32.2865 25.2475C32.1045 27.9151 30.1023 30.0998 27.6026 30.3533C24.751 30.643 22.3484 29.0376 21.6567 26.3218C21.0985 24.1008 21.7417 22.1937 23.489 20.709C23.8652 20.3952 23.938 20.1055 23.9137 19.6468C23.8652 18.2587 23.8652 16.8706 23.9137 15.4946C23.9259 15.06 23.8409 14.8186 23.4405 14.6375C21.3048 13.6478 18.9265 14.4082 17.798 16.4723C17.6281 16.774 17.4946 17.0999 17.3126 17.3896C16.985 17.9207 16.4632 18.0656 15.9293 17.7879C15.4196 17.5224 15.2376 17.0034 15.4803 16.424C17.1791 12.3079 21.3048 11.3182 24.1686 12.6821C24.2292 12.7063 24.302 12.7183 24.4112 12.7425C26.2921 6.96072 30.0173 2.89296 35.8297 0.913403C39.9554 -0.498844 44.069 -0.233293 48.0976 1.43243C56.349 4.84838 61.5789 15.2049 56.9557 25.1389C59.4433 26.8046 61.9308 28.4703 64.4184 30.136C65.0372 30.5464 65.6561 30.9568 66.2749 31.3793C67.9859 32.5381 68.5198 34.4694 67.6218 36.1713C66.7603 37.8129 64.6246 38.5612 62.7924 37.8612C62.5861 37.7767 62.3798 37.6922 62.1007 37.5715C62.1007 39.72 62.1007 41.8082 62.1007 43.8843C62.1007 44.7896 62.1128 45.6949 62.1007 46.6002C62.0886 47.3003 61.6881 47.7107 61.1057 47.6986C60.5232 47.6865 60.1471 47.2641 60.1471 46.5761C60.1471 43.305 60.1349 40.0338 60.1471 36.7748C60.1471 36.3161 60.0136 36.0264 59.6253 35.7609C54.8929 32.5864 50.1726 29.3997 45.4644 26.2011C45.0761 25.9355 44.797 25.8752 44.433 26.2011C44.1903 26.4183 43.9112 26.6115 43.62 26.7442C41.0111 27.903 39.8098 30.1964 38.8148 32.7312C39.3608 32.7916 39.9311 32.8519 40.5257 32.9243C40.6228 32.6709 40.6956 32.4657 40.7805 32.2484C41.5207 30.2447 43.5715 29.0618 45.6707 29.4118C47.6365 29.7377 49.1776 31.5242 49.2504 33.5641C49.3232 35.6161 47.9156 37.487 45.9134 37.9819C43.9476 38.4768 41.7998 37.4508 40.9262 35.5557C40.7199 35.097 40.4772 34.9522 40.0039 34.9522C39.4458 34.9522 38.8755 34.9039 38.3415 34.759C37.8076 34.6142 37.6013 34.8194 37.3951 35.2419C36.9461 36.1592 36.4607 37.0524 35.9875 37.9577C35.1017 39.6476 33.7547 40.7701 31.8982 41.2771C31.1094 41.4944 30.3328 41.7237 29.5441 41.9289C29.1922 42.0134 29.0587 42.1824 29.0709 42.5566C29.0709 46.7571 29.0709 50.9456 29.083 55.1461C29.083 56.0876 29.629 56.7635 30.4542 56.7756C33.2451 56.8118 36.036 56.7877 38.9361 56.7877C38.9361 56.5101 38.9361 56.2687 38.9361 56.0272C38.9361 52.8286 38.9361 49.6299 38.9361 46.4312C38.9361 45.2483 39.2395 44.9345 40.4044 44.9345C43.2681 44.9345 46.1318 44.9345 49.0077 44.9345C50.1362 44.9345 50.4153 45.2121 50.4153 46.3226C50.4153 49.5213 50.4153 52.7199 50.4153 55.9186C50.4153 56.1962 50.4153 56.4618 50.4153 56.7998C51.1191 56.7998 51.75 56.7998 52.3689 56.7998C54.2983 56.7998 56.2398 56.7998 58.1691 56.7998C59.4069 56.7998 60.0014 56.1962 60.0014 54.965C60.0014 53.9873 60.0014 53.0217 60.0014 52.044C60.0014 51.2956 60.3533 50.9214 61.0207 50.9214C61.676 50.9214 62.0886 51.2956 62.0764 52.0319C62.0764 53.3476 62.125 54.6874 61.9551 55.979C61.7245 57.6809 60.1956 58.888 58.4604 58.888C49.1654 58.888 39.8583 58.888 30.5634 58.888C28.5491 58.888 26.9837 57.3188 26.9716 55.303C26.9473 51.4284 26.9716 47.5658 26.9716 43.6912C26.9716 43.4136 26.9716 43.136 26.9716 42.7256L26.9959 42.6773ZM26.2799 13.7805C28.5855 14.9876 30.8182 16.1343 33.0267 17.3172C35.0895 18.4156 37.1402 19.5623 39.2031 20.6728C39.3487 20.7452 39.6399 20.6849 39.7977 20.5883C40.8048 19.9606 41.7877 19.2968 42.7706 18.6449C44.2753 17.6552 45.7557 17.6552 47.2603 18.6691C49.6629 20.2986 52.0898 21.904 54.5046 23.5094C54.7108 23.6421 54.9171 23.7628 55.2084 23.9318C57.4775 18.2346 57.077 12.8994 53.3397 8.09534C49.493 3.14644 44.2631 1.19102 38.1231 2.4705C31.9588 3.74997 28.1365 7.75737 26.2678 13.7805H26.2799ZM41.7149 25.4648C42.4794 24.9578 43.2681 24.475 44.0204 23.9439C44.6514 23.4852 45.1975 23.4852 45.8527 23.9439C47.5273 25.1147 49.2382 26.2252 50.937 27.3598C55.0506 30.1119 59.152 32.876 63.2899 35.5919C63.6903 35.8575 64.2849 36.0023 64.7703 35.954C65.377 35.8937 65.7896 35.4229 65.8988 34.7832C66.0322 34.071 65.7653 33.5279 65.1464 33.1295C62.6953 31.5 60.2441 29.8584 57.793 28.2168C53.91 25.6217 50.027 23.0265 46.1561 20.4193C45.5858 20.0331 44.9791 19.7675 44.3359 20.1538C43.1225 20.8901 41.9576 21.6746 40.8534 22.3868C41.1446 23.449 41.4115 24.4146 41.7028 25.4648H41.7149ZM41.0718 47.0106V56.7273H48.2917V47.0106H41.0718ZM26.4134 21.6384C26.9959 23.7146 27.9302 25.5493 29.265 27.1909C30.2358 26.2252 30.442 24.7405 29.7989 23.4369C29.1558 22.1212 27.9545 21.4574 26.4134 21.6384ZM24.3748 22.7851C23.392 23.7628 23.2342 25.3923 24.0472 26.7201C24.7753 27.9151 26.2071 28.5548 27.19 28.2289C26.2678 26.4304 25.3213 24.6198 24.3748 22.7851ZM47.1268 34.0227C45.7071 34.3487 44.3723 34.6504 42.9769 34.9763C43.5593 35.7488 44.2995 36.0989 45.2217 35.942C46.2896 35.773 46.8599 35.0849 47.1147 34.0227H47.1268ZM42.7706 32.8881C44.0447 32.5864 45.1611 32.3329 46.3988 32.0432C45.0883 30.9931 43.4501 31.3552 42.7706 32.8881Z" fill="white"/>
<path d="M7.53437 65.6592C6.56361 65.6954 6.04184 64.9953 6.26025 64.3314C6.33306 64.09 6.47867 63.8728 6.60002 63.6434C10.0705 56.9926 13.5288 50.3418 16.9992 43.6909C17.1205 43.4495 17.2419 43.0995 17.4603 43.015C17.8243 42.8701 18.3097 42.7615 18.6616 42.8822C19.1349 43.0391 19.3047 43.5219 19.1349 44.041C19.0742 44.2341 18.9771 44.4272 18.88 44.6083C15.3853 51.3195 11.8906 58.0307 8.37164 64.7418C8.15322 65.1522 7.74065 65.454 7.5465 65.6592H7.53437Z" fill="white"/>
</svg>
