<svg width="69" height="44" viewBox="0 0 69 44" fill="none" xmlns="http://www.w3.org/2000/svg">
<mask id="path-1-outside-1_237_316" maskUnits="userSpaceOnUse" x="-2" y="-2" width="73" height="48" fill="black">
<rect fill="white" x="-2" y="-2" width="73" height="48"/>
<path d="M1.37198 43V39.8982L19.0706 22.5645C20.6925 20.9832 21.9089 19.6046 22.7198 18.4287C23.5307 17.2123 24.0781 16.077 24.3619 15.0228C24.6458 13.9686 24.7877 12.9752 24.7877 12.0426C24.7877 9.56927 23.9362 7.62303 22.2332 6.2039C20.5708 4.78476 18.0975 4.0752 14.8132 4.0752C12.2993 4.0752 10.0692 4.46039 8.123 5.23078C6.21731 6.00116 4.57517 7.19729 3.19658 8.81916L0.0947601 6.14308C1.75717 4.19684 3.88587 2.69661 6.48086 1.6424C9.07585 0.588186 11.9749 0.0610784 15.1781 0.0610784C18.0569 0.0610784 20.5506 0.527365 22.659 1.45994C24.7674 2.35197 26.3893 3.66973 27.5246 5.41324C28.7004 7.15674 29.2884 9.20435 29.2884 11.5561C29.2884 12.9346 29.0856 14.293 28.6802 15.631C28.3152 16.969 27.6259 18.3882 26.6123 19.8884C25.6392 21.3481 24.1998 23.0105 22.2941 24.8756L6.05512 40.8105L4.83872 39.1075H31.2346V43H1.37198ZM53.2125 43.3649C50.1715 43.3649 47.2724 42.8784 44.5152 41.9052C41.758 40.8916 39.5685 39.5535 37.9467 37.8911L40.0754 34.4244C41.4134 35.8435 43.238 37.0194 45.5492 37.9519C47.9009 38.8845 50.435 39.3508 53.1517 39.3508C56.7603 39.3508 59.4972 38.5601 61.3624 36.9788C63.2681 35.357 64.2209 33.2485 64.2209 30.6535C64.2209 28.8289 63.7749 27.2679 62.8829 25.9704C62.0314 24.6324 60.5717 23.5984 58.5038 22.8686C56.4359 22.1387 53.5977 21.7738 49.989 21.7738H40.9268L43.1164 0.425997H66.4104V4.31848H44.8801L47.1305 2.18978L45.2451 20.0709L42.9947 17.8813H50.9621C55.2601 17.8813 58.7065 18.4084 61.3015 19.4627C63.8965 20.5169 65.7617 21.9968 66.897 23.9025C68.0728 25.7677 68.6608 27.9572 68.6608 30.4711C68.6608 32.8633 68.0931 35.0529 66.9578 37.0396C65.8225 38.9859 64.1195 40.5267 61.8489 41.662C59.5783 42.7973 56.6995 43.3649 53.2125 43.3649Z"/>
</mask>
<path d="M1.37198 43H-0.62802C-0.62802 44.1046 0.267411 45 1.37198 45V43ZM1.37198 39.8982L-0.0274262 38.4693C-0.411546 38.8455 -0.62802 39.3605 -0.62802 39.8982H1.37198ZM19.0706 22.5645L17.6744 21.1325L17.6712 21.1356L19.0706 22.5645ZM22.7198 18.4287L24.3662 19.5642C24.3722 19.5555 24.3781 19.5469 24.3839 19.5381L22.7198 18.4287ZM24.3619 15.0228L26.2932 15.5427L24.3619 15.0228ZM22.2332 6.2039L20.9347 7.72503C20.9407 7.73017 20.9468 7.73527 20.9529 7.74034L22.2332 6.2039ZM8.123 5.23078L7.3869 3.37116C7.3824 3.37295 7.37791 3.37474 7.37342 3.37656L8.123 5.23078ZM3.19658 8.81916L1.89011 10.3335C2.29366 10.6816 2.81949 10.8543 3.35088 10.8132C3.88228 10.7721 4.37527 10.5206 4.72046 10.1145L3.19658 8.81916ZM0.0947601 6.14308L-1.42599 4.84411C-2.14089 5.68106 -2.04512 6.93837 -1.21171 7.65739L0.0947601 6.14308ZM6.48086 1.6424L7.23361 3.49533L7.23361 3.49533L6.48086 1.6424ZM22.659 1.45994L21.85 3.28901C21.8598 3.29338 21.8698 3.29767 21.8797 3.30187L22.659 1.45994ZM27.5246 5.41324L25.8486 6.50458C25.8545 6.51361 25.8604 6.52259 25.8664 6.53152L27.5246 5.41324ZM28.6802 15.631L26.7661 15.051C26.7607 15.0688 26.7555 15.0868 26.7506 15.1048L28.6802 15.631ZM26.6123 19.8884L24.9551 18.7687L24.9482 18.779L26.6123 19.8884ZM22.2941 24.8756L20.8951 23.4463L20.8933 23.4481L22.2941 24.8756ZM6.05512 40.8105L4.42765 41.973C4.76745 42.4487 5.29837 42.7519 5.88074 42.8029C6.46312 42.8538 7.03864 42.6474 7.4559 42.238L6.05512 40.8105ZM4.83872 39.1075V37.1075C4.08955 37.1075 3.40319 37.5262 3.06038 38.1924C2.71758 38.8585 2.7758 39.6604 3.21125 40.27L4.83872 39.1075ZM31.2346 39.1075H33.2346C33.2346 38.003 32.3392 37.1075 31.2346 37.1075V39.1075ZM31.2346 43V45C32.3392 45 33.2346 44.1046 33.2346 43H31.2346ZM3.37198 43V39.8982H-0.62802V43H3.37198ZM2.77139 41.327L20.47 23.9933L17.6712 21.1356L-0.0274262 38.4693L2.77139 41.327ZM20.4668 23.9965C22.1343 22.3706 23.4519 20.8899 24.3662 19.5642L21.0734 17.2933C20.3658 18.3192 19.2506 19.5957 17.6744 21.1325L20.4668 23.9965ZM24.3839 19.5381C25.2771 18.1983 25.9374 16.8641 26.2932 15.5427L22.4307 14.5029C22.2188 15.2899 21.7844 16.2263 21.0557 17.3193L24.3839 19.5381ZM26.2932 15.5427C26.6151 14.3471 26.7877 13.1776 26.7877 12.0426H22.7877C22.7877 12.7727 22.6764 13.5901 22.4307 14.5029L26.2932 15.5427ZM26.7877 12.0426C26.7877 9.05321 25.7289 6.51354 23.5136 4.66746L20.9529 7.74034C22.1435 8.73252 22.7877 10.0853 22.7877 12.0426H26.7877ZM23.5318 4.68277C21.3636 2.83194 18.3426 2.0752 14.8132 2.0752V6.0752C17.8524 6.0752 19.778 6.73759 20.9347 7.72503L23.5318 4.68277ZM14.8132 2.0752C12.0967 2.0752 9.60942 2.49142 7.3869 3.37116L8.8591 7.09039C10.5291 6.42936 12.5019 6.0752 14.8132 6.0752V2.0752ZM7.37342 3.37656C5.15745 4.27238 3.25277 5.66496 1.6727 7.52386L4.72046 10.1145C5.89757 8.72962 7.27717 7.72995 8.87258 7.085L7.37342 3.37656ZM4.50305 7.30484L1.40123 4.62877L-1.21171 7.65739L1.89011 10.3335L4.50305 7.30484ZM1.61551 7.44205C3.05084 5.76166 4.90675 4.44062 7.23361 3.49533L5.72811 -0.210534C2.86499 0.952605 0.463505 2.63202 -1.42599 4.84411L1.61551 7.44205ZM7.23361 3.49533C9.55768 2.55118 12.1962 2.06108 15.1781 2.06108V-1.93892C11.7536 -1.93892 8.59401 -1.37481 5.72811 -0.210533L7.23361 3.49533ZM15.1781 2.06108C17.8455 2.06108 20.0514 2.49347 21.85 3.28901L23.468 -0.369132C21.0497 -1.43874 18.2684 -1.93892 15.1781 -1.93892V2.06108ZM21.8797 3.30187C23.6595 4.05488 24.9524 5.12834 25.8486 6.50458L29.2006 4.32189C27.8261 2.21113 25.8753 0.649056 23.4383 -0.381996L21.8797 3.30187ZM25.8664 6.53152C26.7936 7.90629 27.2884 9.55392 27.2884 11.5561H31.2884C31.2884 8.85478 30.6073 6.4072 29.1827 4.29495L25.8664 6.53152ZM27.2884 11.5561C27.2884 12.7353 27.1154 13.8983 26.7661 15.051L30.5942 16.211C31.0558 14.6876 31.2884 13.134 31.2884 11.5561H27.2884ZM26.7506 15.1048C26.4579 16.178 25.8815 17.3977 24.9551 18.7687L28.2695 21.0081C29.3704 19.3787 30.1726 17.7601 30.6097 16.1572L26.7506 15.1048ZM24.9482 18.779C24.0808 20.08 22.7471 21.6337 20.8951 23.4463L23.693 26.305C25.6524 24.3873 27.1975 22.6162 28.2764 20.9978L24.9482 18.779ZM20.8933 23.4481L4.65434 39.383L7.4559 42.238L23.6948 26.3032L20.8933 23.4481ZM7.68259 39.648L6.46619 37.945L3.21125 40.27L4.42765 41.973L7.68259 39.648ZM4.83872 41.1075H31.2346V37.1075H4.83872V41.1075ZM29.2346 39.1075V43H33.2346V39.1075H29.2346ZM31.2346 41H1.37198V45H31.2346V41ZM44.5152 41.9052L43.8251 43.7824C43.8332 43.7854 43.8414 43.7883 43.8496 43.7912L44.5152 41.9052ZM37.9467 37.8911L36.2423 36.8446C35.7629 37.6253 35.8753 38.632 36.5151 39.2878L37.9467 37.8911ZM40.0754 34.4244L41.5305 33.0524C41.1034 32.5994 40.4897 32.3711 39.8704 32.4349C39.2511 32.4987 38.6968 32.8473 38.371 33.3779L40.0754 34.4244ZM45.5492 37.9519L44.8008 39.8067L44.8119 39.8111L45.5492 37.9519ZM61.3624 36.9788L62.6557 38.5043L62.6586 38.5019L61.3624 36.9788ZM62.8829 25.9704L61.1955 27.0442C61.2083 27.0641 61.2213 27.0839 61.2348 27.1035L62.8829 25.9704ZM58.5038 22.8686L59.1695 20.9826L58.5038 22.8686ZM40.9268 21.7738L38.9373 21.5698C38.8795 22.1328 39.063 22.6938 39.4422 23.1139C39.8214 23.534 40.3609 23.7738 40.9268 23.7738V21.7738ZM43.1164 0.425997V-1.574C42.0908 -1.574 41.2314 -0.798269 41.1268 0.22194L43.1164 0.425997ZM66.4104 0.425997H68.4104C68.4104 -0.678572 67.515 -1.574 66.4104 -1.574V0.425997ZM66.4104 4.31848V6.31848C67.515 6.31848 68.4104 5.42305 68.4104 4.31848H66.4104ZM44.8801 4.31848L43.5057 2.86554C42.9107 3.42839 42.719 4.29714 43.0219 5.05811C43.3248 5.81909 44.0611 6.31848 44.8801 6.31848V4.31848ZM47.1305 2.18978L49.1194 2.3995C49.2072 1.56698 48.7672 0.767867 48.0168 0.396887C47.2663 0.025907 46.3642 0.161561 45.7561 0.736843L47.1305 2.18978ZM45.2451 20.0709L43.8503 21.5043C44.3993 22.0384 45.205 22.2121 45.9253 21.9516C46.6455 21.6912 47.1537 21.0422 47.234 20.2806L45.2451 20.0709ZM42.9947 17.8813V15.8813C42.1808 15.8813 41.4481 16.3746 41.1418 17.1286C40.8354 17.8827 41.0167 18.7472 41.6 19.3148L42.9947 17.8813ZM66.897 23.9025L65.1788 24.9261C65.1874 24.9406 65.1962 24.9549 65.2051 24.9691L66.897 23.9025ZM66.9578 37.0396L68.6854 38.0474C68.6884 38.0422 68.6913 38.0371 68.6943 38.0319L66.9578 37.0396ZM61.8489 41.662L60.9545 39.8731L61.8489 41.662ZM53.2125 41.3649C50.389 41.3649 47.7157 40.9139 45.1809 40.0193L43.8496 43.7912C46.8291 44.8428 49.9539 45.3649 53.2125 45.3649V41.3649ZM45.2053 40.0281C42.6561 39.0909 40.7443 37.8947 39.3782 36.4945L36.5151 39.2878C38.3928 41.2124 40.8599 42.6923 43.8251 43.7824L45.2053 40.0281ZM39.651 38.9376L41.7797 35.4709L38.371 33.3779L36.2423 36.8446L39.651 38.9376ZM38.6202 35.7964C40.2032 37.4753 42.2937 38.795 44.8008 39.8066L46.2975 36.0972C44.1823 35.2437 42.6236 34.2117 41.5305 33.0524L38.6202 35.7964ZM44.8119 39.8111C47.4151 40.8434 50.2014 41.3508 53.1517 41.3508V37.3508C50.6687 37.3508 48.3866 36.9256 46.2864 36.0928L44.8119 39.8111ZM53.1517 41.3508C57.0151 41.3508 60.2915 40.5088 62.6557 38.5043L60.069 35.4533C58.7029 36.6115 56.5055 37.3508 53.1517 37.3508V41.3508ZM62.6586 38.5019C65.0294 36.4842 66.2209 33.81 66.2209 30.6535H62.2209C62.2209 32.6871 61.5067 34.2297 60.0661 35.4557L62.6586 38.5019ZM66.2209 30.6535C66.2209 28.4905 65.687 26.5189 64.5309 24.8373L61.2348 27.1035C61.8628 28.0169 62.2209 29.1674 62.2209 30.6535H66.2209ZM64.5702 24.8967C63.4014 23.0601 61.5001 21.8052 59.1695 20.9826L57.8382 24.7546C59.6433 25.3917 60.6613 26.2047 61.1955 27.0442L64.5702 24.8967ZM59.1695 20.9826C56.7942 20.1443 53.6976 19.7738 49.989 19.7738V23.7738C53.4977 23.7738 56.0777 24.1332 57.8382 24.7546L59.1695 20.9826ZM49.989 19.7738H40.9268V23.7738H49.989V19.7738ZM42.9164 21.9779L45.1059 0.630055L41.1268 0.22194L38.9373 21.5698L42.9164 21.9779ZM43.1164 2.426H66.4104V-1.574H43.1164V2.426ZM64.4104 0.425997V4.31848H68.4104V0.425997H64.4104ZM66.4104 2.31848H44.8801V6.31848H66.4104V2.31848ZM46.2545 5.77142L48.5049 3.64272L45.7561 0.736843L43.5057 2.86554L46.2545 5.77142ZM45.1415 1.98006L43.2561 19.8611L47.234 20.2806L49.1194 2.3995L45.1415 1.98006ZM46.6398 18.6374L44.3894 16.4479L41.6 19.3148L43.8503 21.5043L46.6398 18.6374ZM42.9947 19.8813H50.9621V15.8813H42.9947V19.8813ZM50.9621 19.8813C55.1257 19.8813 58.2856 20.3962 60.5488 21.3156L62.0543 17.6097C59.1275 16.4207 55.3945 15.8813 50.9621 15.8813V19.8813ZM60.5488 21.3156C62.8476 22.2495 64.3192 23.4833 65.1788 24.9261L68.6152 22.8789C67.2041 20.5104 64.9455 18.7843 62.0543 17.6097L60.5488 21.3156ZM65.2051 24.9691C66.1526 26.472 66.6608 28.2804 66.6608 30.4711H70.6608C70.6608 27.6339 69.9931 25.0634 68.5888 22.8359L65.2051 24.9691ZM66.6608 30.4711C66.6608 32.5317 66.1759 34.3767 65.2213 36.0474L68.6943 38.0319C70.0103 35.729 70.6608 33.1949 70.6608 30.4711H66.6608ZM65.2302 36.0319C64.315 37.601 62.9229 38.8889 60.9545 39.8731L62.7433 43.4508C65.3162 42.1644 67.33 40.3708 68.6854 38.0474L65.2302 36.0319ZM60.9545 39.8731C59.0454 40.8276 56.4987 41.3649 53.2125 41.3649V45.3649C56.9002 45.3649 60.1112 44.7669 62.7433 43.4508L60.9545 39.8731Z" fill="white" mask="url(#path-1-outside-1_237_316)"/>
</svg>
