<svg width="9" height="11" viewBox="0 0 9 11" fill="none" xmlns="http://www.w3.org/2000/svg">
<g clip-path="url(#clip0_67_3207)">
<path d="M0 5.5012C0 4.07461 0.000963546 2.64754 0 1.22094C0 0.720748 0.208126 0.345 0.659065 0.113401C0.821905 0.0297947 0.997752 0.000964969 1.18083 0.000964969C3.39264 0.00240646 5.60446 0.00528943 7.81628 3.97637e-06C8.38478 -0.00143751 8.85595 0.389206 8.96628 0.901415C8.98796 1.00184 8.99855 1.10707 8.99855 1.20989C9 4.0674 9.00048 6.92491 8.99855 9.78243C8.99855 10.2966 8.77501 10.6781 8.30143 10.902C8.14244 10.9769 7.97286 10.9976 7.79846 10.9971C5.59868 10.9966 3.39891 10.9923 1.19961 10.9995C0.588726 11.0014 0.141641 10.5796 0.0356512 10.113C0.00867191 9.99529 0.00192709 9.8766 0.00192709 9.75696C0.00192709 8.33805 0.00192709 6.91915 0.00192709 5.50072H0V5.5012ZM8.22868 5.50505C8.22868 4.08662 8.22531 2.66772 8.23157 1.24929C8.23302 0.959555 8.09089 0.765915 7.75028 0.767356C5.57508 0.776005 3.39987 0.776005 1.22418 0.768317C0.916814 0.767356 0.767464 0.966762 0.768428 1.22719C0.772282 2.77775 0.769873 4.32831 0.769873 5.87839C0.769873 7.18102 0.769873 8.48364 0.7718 9.78627C0.7718 10.0842 0.919223 10.2283 1.2131 10.2283C3.40035 10.2283 5.5876 10.2288 7.77533 10.2283C8.08511 10.2283 8.23013 10.0813 8.23013 9.77282C8.23013 8.35007 8.23013 6.9278 8.23013 5.50505H8.22868Z" fill="#888C90"/>
<path d="M4.50245 1.53807C5.33303 1.53807 6.16408 1.53807 6.99466 1.53807C7.30974 1.53807 7.45861 1.68654 7.45813 1.99839C7.45813 2.6336 7.45813 3.2693 7.45716 3.90451C7.45716 4.18849 7.29625 4.34753 7.0096 4.34801C5.33592 4.34801 3.66224 4.34897 1.98856 4.34849C1.6966 4.34849 1.53858 4.18897 1.53906 3.8949C1.53906 3.25969 1.53955 2.62399 1.54051 1.98878C1.54051 1.68078 1.68697 1.53711 1.99771 1.53711C2.83262 1.53711 3.66754 1.53711 4.50197 1.53711V1.53807H4.50245ZM4.48655 3.58162C5.17645 3.58162 5.86683 3.5797 6.55673 3.58354C6.65405 3.58402 6.6897 3.56048 6.68825 3.45861C6.68247 3.11506 6.68343 2.7715 6.68825 2.42795C6.6897 2.33617 6.66513 2.30494 6.56781 2.30494C5.18368 2.30831 3.79954 2.30783 2.41541 2.3059C2.33881 2.3059 2.30942 2.32416 2.31038 2.40537C2.31424 2.76093 2.31568 3.1165 2.31038 3.47207C2.30894 3.5648 2.34122 3.58402 2.42842 3.58354C3.11446 3.58018 3.80051 3.58162 4.48655 3.5821V3.58162Z" fill="#888C90"/>
<path d="M6.93702 8.05668C6.93702 8.34401 6.93799 8.63183 6.93702 8.91917C6.93606 9.16086 6.7843 9.32951 6.56654 9.3348C6.34781 9.34008 6.16956 9.16662 6.16811 8.92926C6.16378 8.34593 6.16426 7.76309 6.16811 7.17977C6.16956 6.94673 6.34396 6.76606 6.55498 6.77471C6.77033 6.78384 6.94521 6.94769 6.93943 7.1937C6.93269 7.48104 6.93799 7.76886 6.93799 8.0562L6.93702 8.05668Z" fill="#888C90"/>
<path d="M2.43888 7.80077C2.16042 7.79981 1.92628 7.56725 1.92676 7.29049C1.92676 7.0142 2.1609 6.77684 2.43647 6.77347C2.72457 6.77011 2.95872 7.00699 2.95727 7.30058C2.95583 7.57927 2.72554 7.80174 2.43936 7.80077H2.43888Z" fill="#888C90"/>
<path d="M2.44229 6.26615C2.16286 6.26615 1.92968 6.03647 1.92775 5.75874C1.92534 5.47861 2.16912 5.23452 2.44662 5.23933C2.73328 5.24413 2.95875 5.47477 2.95778 5.76307C2.9573 6.04176 2.7275 6.26567 2.44229 6.26615Z" fill="#888C90"/>
<path d="M2.95731 8.82711C2.95875 9.1082 2.73039 9.335 2.44518 9.33644C2.16431 9.33788 1.93065 9.10868 1.92776 8.82951C1.92487 8.55419 2.15998 8.31346 2.43699 8.30962C2.72076 8.30577 2.95635 8.53977 2.95731 8.82711Z" fill="#888C90"/>
<path d="M6.55556 6.26522C6.2742 6.26666 6.04247 6.0389 6.04102 5.75878C6.03958 5.47865 6.26697 5.24512 6.5464 5.23936C6.82294 5.23359 7.06816 5.47528 7.07105 5.75589C7.07346 6.03074 6.83788 6.26378 6.55556 6.26474V6.26522Z" fill="#888C90"/>
<path d="M5.00965 7.29383C5.00965 7.57733 4.78418 7.80124 4.49753 7.80076C4.21425 7.80076 3.99022 7.57685 3.98733 7.29047C3.98444 7.00938 4.21328 6.77634 4.49416 6.77346C4.77888 6.77105 5.00917 7.00313 5.00917 7.29335L5.00965 7.29383Z" fill="#888C90"/>
<path d="M3.98926 5.74814C3.99167 5.46657 4.22533 5.23593 4.50379 5.23929C4.789 5.24314 5.01351 5.47714 5.01013 5.76736C5.00676 6.04989 4.77937 6.26804 4.49078 6.26563C4.20991 6.26323 3.98733 6.03307 3.98974 5.74766L3.98926 5.74814Z" fill="#888C90"/>
<path d="M5.00967 8.82949C5.00967 9.11202 4.7842 9.33545 4.49851 9.33593C4.21619 9.33593 3.99072 9.1101 3.99024 8.82612C3.98975 8.54263 4.2157 8.31199 4.49561 8.30959C4.7789 8.30719 5.00967 8.54023 5.00967 8.82949Z" fill="#888C90"/>
</g>
<defs>
<clipPath id="clip0_67_3207">
<rect width="9" height="11" fill="white"/>
</clipPath>
</defs>
</svg>
