<svg width="20" height="25" viewBox="0 0 20 25" fill="none" xmlns="http://www.w3.org/2000/svg">
<path d="M0 12.5027C0 9.26048 0.00214121 6.01713 0 2.77487C0 1.63806 0.462502 0.784092 1.46459 0.25773C1.82645 0.0677153 2.21723 0.00219311 2.62406 0.00219311C7.53921 0.00546922 12.4544 0.0120214 17.3695 9.03722e-06C18.6328 -0.00326707 19.6799 0.884559 19.9251 2.04867C19.9732 2.27691 19.9968 2.51606 19.9968 2.74976C20 9.2441 20.0011 15.7384 19.9968 22.2328C19.9968 23.4013 19.5 24.2683 18.4476 24.7772C18.0943 24.9476 17.7175 24.9945 17.3299 24.9935C12.4415 24.9924 7.55313 24.9825 2.66581 24.9989C1.30828 25.0033 0.314758 24.0445 0.0792249 22.9841C0.0192709 22.7166 0.00428243 22.4468 0.00428243 22.1749C0.00428243 18.9501 0.00428243 15.7253 0.00428243 12.5016H0V12.5027ZM18.286 12.5115C18.286 9.28778 18.2785 6.063 18.2924 2.8393C18.2956 2.18081 17.9798 1.74072 17.2228 1.74399C12.3891 1.76365 7.55527 1.76365 2.72041 1.74618C2.03736 1.74399 1.70548 2.19719 1.70762 2.78907C1.71618 6.31307 1.71083 9.83708 1.71083 13.36C1.71083 16.3205 1.71083 19.281 1.71511 22.2415C1.71511 22.9186 2.04272 23.2462 2.69579 23.2462C7.55634 23.2462 12.4169 23.2473 17.2785 23.2462C17.9669 23.2462 18.2892 22.912 18.2892 22.2109C18.2892 18.9774 18.2892 15.745 18.2892 12.5115H18.286Z" fill="white"/>
<path d="M10.0033 3.49437C11.849 3.49437 13.6958 3.49437 15.5415 3.49437C16.2417 3.49437 16.5725 3.83181 16.5714 4.54054C16.5714 5.98422 16.5714 7.42898 16.5693 8.87265C16.5693 9.51805 16.2117 9.87951 15.5747 9.8806C11.8554 9.8806 8.13613 9.88279 4.41685 9.8817C3.76806 9.8817 3.4169 9.51914 3.41797 8.85081C3.41797 7.40714 3.41904 5.96238 3.42118 4.5187C3.42118 3.81871 3.74665 3.49219 4.43719 3.49219C6.29255 3.49219 8.14791 3.49219 10.0022 3.49219V3.49437H10.0033ZM9.96794 8.1388C11.501 8.1388 13.0352 8.13444 14.5683 8.14317C14.7846 8.14426 14.8638 8.09075 14.8606 7.85924C14.8478 7.07844 14.8499 6.29763 14.8606 5.51682C14.8638 5.30824 14.8092 5.23726 14.593 5.23726C11.5171 5.24491 8.44126 5.24381 5.3654 5.23945C5.19518 5.23945 5.12987 5.28094 5.13201 5.4655C5.14058 6.27361 5.14379 7.08171 5.13201 7.88982C5.1288 8.10058 5.20053 8.14426 5.39431 8.14317C6.91885 8.13553 8.4434 8.1388 9.96794 8.1399V8.1388Z" fill="white"/>
<path d="M15.4167 18.3127C15.4167 18.9657 15.4188 19.6198 15.4167 20.2729C15.4145 20.8222 15.0773 21.2055 14.5934 21.2175C14.1073 21.2295 13.7112 20.8353 13.708 20.2958C13.6984 18.9701 13.6994 17.6454 13.708 16.3197C13.7112 15.7901 14.0988 15.3795 14.5677 15.3991C15.0463 15.4199 15.4349 15.7922 15.422 16.3514C15.4071 17.0044 15.4188 17.6585 15.4188 18.3116L15.4167 18.3127Z" fill="white"/>
<path d="M5.42517 17.7294C4.80636 17.7272 4.28604 17.1987 4.28711 16.5696C4.28711 15.9417 4.80743 15.4023 5.41981 15.3946C6.06004 15.387 6.58035 15.9253 6.57714 16.5926C6.57393 17.226 6.06218 17.7316 5.42624 17.7294H5.42517Z" fill="white"/>
<path d="M5.43056 14.2401C4.8096 14.2401 4.29143 13.7181 4.28715 13.0869C4.2818 12.4502 4.82352 11.8955 5.44019 11.9064C6.0772 11.9173 6.57825 12.4415 6.57611 13.0967C6.57503 13.7301 6.06436 14.239 5.43056 14.2401Z" fill="white"/>
<path d="M6.57505 20.0629C6.57827 20.7018 6.0708 21.2172 5.437 21.2205C4.81284 21.2238 4.29359 20.7029 4.28717 20.0684C4.28074 19.4427 4.8032 18.8956 5.4188 18.8868C6.04939 18.8781 6.57291 19.4099 6.57505 20.0629Z" fill="white"/>
<path d="M14.5712 14.2419C13.9459 14.2452 13.431 13.7275 13.4277 13.0909C13.4245 12.4542 13.9299 11.9235 14.5508 11.9104C15.1653 11.8973 15.7103 12.4466 15.7167 13.0843C15.7221 13.709 15.1985 14.2386 14.5712 14.2408V14.2419Z" fill="white"/>
<path d="M11.1293 16.5772C11.1293 17.2216 10.6283 17.7304 9.99125 17.7293C9.36174 17.7293 8.86391 17.2205 8.85748 16.5696C8.85106 15.9308 9.3596 15.4011 9.98376 15.3946C10.6165 15.3891 11.1282 15.9166 11.1282 16.5762L11.1293 16.5772Z" fill="white"/>
<path d="M8.86719 13.0628C8.87254 12.4229 9.39178 11.8987 10.0106 11.9063C10.6444 11.9151 11.1433 12.4469 11.1358 13.1065C11.1283 13.7486 10.623 14.2444 9.98169 14.2389C9.35752 14.2335 8.8629 13.7104 8.86826 13.0617L8.86719 13.0628Z" fill="white"/>
<path d="M11.1326 20.0644C11.1326 20.7066 10.6315 21.2144 9.99668 21.2154C9.3693 21.2154 8.86826 20.7022 8.86719 20.0568C8.86612 19.4125 9.36823 18.8883 9.99026 18.8829C10.6198 18.8774 11.1326 19.407 11.1326 20.0644Z" fill="white"/>
</svg>
