<svg width="29" height="28" viewBox="0 0 29 28" fill="none" xmlns="http://www.w3.org/2000/svg">
<g clip-path="url(#clip0_4047_5859)">
<path d="M14.3664 27.0134C13.6998 27.0134 13.0198 26.9601 12.3398 26.8668C4.97977 25.7601 -0.113563 18.8801 0.97977 11.5068C2.08644 4.14676 8.96644 -0.946571 16.3264 0.146762C17.0598 0.253429 17.7798 0.426762 18.4864 0.653429C19.2598 0.906762 19.6731 1.7201 19.4331 2.49343C19.1798 3.26676 18.3664 3.6801 17.5931 3.4401C17.0464 3.26676 16.4731 3.13343 15.8998 3.0401C10.1264 2.17343 4.72644 6.17343 3.8731 11.9468C3.00644 17.7201 7.00644 23.1201 12.7798 23.9734C15.5798 24.3868 18.3664 23.6934 20.6464 22.0134C22.9131 20.3334 24.4064 17.8668 24.8198 15.0668C24.9531 14.1601 24.9798 13.2534 24.8731 12.3601C24.7931 11.5601 25.3664 10.8401 26.1664 10.7468C26.9664 10.6534 27.6864 11.2401 27.7798 12.0401C27.8998 13.1868 27.8731 14.3468 27.7131 15.4934C27.1798 19.0668 25.2864 22.2134 22.3931 24.3601C20.0464 26.0934 17.2598 27.0134 14.3798 27.0134H14.3664Z" fill="white"/>
<path d="M14.3401 17.3066C13.9801 17.3066 13.6201 17.1733 13.3401 16.9066L8.46012 12.2933C7.87345 11.7333 7.84679 10.8133 8.40679 10.2266C8.96679 9.63997 9.88679 9.61331 10.4735 10.1733L14.3135 13.8L26.1268 1.98664C26.7001 1.41331 27.6201 1.41331 28.1935 1.98664C28.7668 2.55997 28.7668 3.47997 28.1935 4.05331L15.3668 16.88C15.0868 17.16 14.7135 17.3066 14.3401 17.3066Z" fill="white"/>
</g>
<defs>
<clipPath id="clip0_4047_5859">
<rect width="27.7867" height="27.0133" fill="white" transform="translate(0.833008 -0.000488281)"/>
</clipPath>
</defs>
</svg>
