<svg width="24" height="25" viewBox="0 0 24 25" fill="none" xmlns="http://www.w3.org/2000/svg">
<path d="M23.6467 15.1987C23.6467 17.7902 23.6427 20.3817 23.6493 22.9725C23.6512 23.8003 23.3246 24.4256 22.5757 24.8046C22.3453 24.9212 22.1005 25.0006 21.8262 25C16.9342 24.9941 12.0423 24.9948 7.14972 24.9954C6.25618 24.9954 5.46606 24.2354 5.35019 23.4408C5.3155 23.2018 5.30175 22.966 5.30109 22.7276C5.29913 21.4771 5.29324 20.226 5.30109 18.9755C5.3024 18.7749 5.22974 18.7463 5.05365 18.7469C3.87207 18.7541 2.69049 18.7417 1.50891 18.7554C0.81895 18.7632 0.371194 18.4336 0.0851279 17.8377C-0.0130642 17.6332 0.00788345 17.4124 0.00788345 17.1981C0.00395576 14.8763 0.0118111 12.5544 2.80767e-05 10.2332C-0.00324499 9.54671 0.279548 9.05824 0.903396 8.78274C1.09716 8.69742 1.31777 8.65899 1.53706 8.65899C2.71864 8.65769 3.90022 8.65443 5.0818 8.6616C5.2448 8.66225 5.29913 8.63164 5.29847 8.45514C5.29324 6.30586 5.29062 4.15594 5.30109 2.00666C5.30502 1.15086 5.72463 0.527569 6.49773 0.173915C6.73732 0.0638461 7.01029 -0.00128341 7.29963 1.91761e-05C10.4156 0.0110912 13.5316 0.00913731 16.6475 0.00132177C16.8747 0.00132177 17.0403 0.0853389 17.1797 0.232532C17.7414 0.823908 18.3083 1.41138 18.8798 1.99233C19.5828 2.7068 20.2662 3.43951 20.9732 4.15007C21.8242 5.00523 22.6543 5.88122 23.4941 6.74744C23.644 6.9018 23.648 7.09458 23.648 7.28932C23.6467 9.17677 23.644 11.0642 23.6427 12.951C23.6427 13.7 23.6427 14.449 23.6427 15.198H23.6473L23.6467 15.1987ZM22.6772 15.5575C22.6772 13.0337 22.6732 10.5093 22.6831 7.98555C22.6837 7.74783 22.6104 7.70094 22.3904 7.70159C20.441 7.7094 18.4916 7.69898 16.5428 7.71396C16.1219 7.71722 15.9216 7.48275 15.9242 7.09393C15.9386 5.14656 15.9274 3.19918 15.9366 1.25181C15.9379 1.03167 15.8731 0.976962 15.6597 0.977614C12.8972 0.983475 10.1354 0.979568 7.37295 0.982173C6.66007 0.982824 6.28171 1.36774 6.28301 2.06984C6.28563 4.20413 6.29022 6.33843 6.2876 8.47272C6.2876 8.62057 6.32033 8.6642 6.47416 8.66355C9.11618 8.65704 11.7576 8.65769 14.3996 8.65508C14.6051 8.65508 14.8192 8.68504 14.9933 8.76255C15.5812 9.02372 15.9281 9.47311 15.9281 10.142C15.9281 12.5238 15.9255 14.9056 15.932 17.2874C15.9327 17.544 15.8731 17.781 15.7553 17.994C15.4731 18.5046 15.0345 18.7547 14.4369 18.7528C11.8027 18.7463 9.16855 18.7515 6.53439 18.7463C6.34913 18.7463 6.27516 18.7749 6.27712 18.9859C6.28825 20.3185 6.28105 21.6517 6.28432 22.9849C6.28432 23.1412 6.26599 23.321 6.33407 23.4486C6.537 23.8283 6.84729 24.0582 7.31272 24.0576C12.0921 24.053 16.8714 24.0537 21.6507 24.0602C21.891 24.0602 22.0906 23.9833 22.2792 23.8641C22.6241 23.6453 22.6804 23.3008 22.6798 22.9263C22.6765 20.4696 22.6778 18.0129 22.6772 15.5562V15.5575ZM7.93657 17.8084C10.0667 17.8084 12.1975 17.8084 14.3276 17.8084C14.774 17.8084 14.9828 17.5993 14.9828 17.1532C14.9828 14.8684 14.9828 12.5837 14.9828 10.299C14.9828 9.83849 14.7976 9.64961 14.3335 9.64961C10.0654 9.64896 5.79729 9.64961 1.52921 9.65026C1.1384 9.65026 0.973439 9.80202 0.972785 10.1824C0.969512 12.5342 0.969512 14.8867 0.972785 17.2385C0.972785 17.6332 1.16459 17.8071 1.56783 17.8071C3.69074 17.8071 5.81366 17.8071 7.93591 17.8077L7.93657 17.8084ZM22.0566 6.75135C22.0677 6.73181 22.0789 6.71227 22.09 6.69273C20.3749 4.92186 18.6598 3.15034 16.9028 1.33648C16.8917 1.4472 16.8865 1.4752 16.8865 1.50321C16.8858 3.18095 16.8878 4.85803 16.8799 6.53577C16.8793 6.72465 16.9486 6.7533 17.1156 6.7533C18.6886 6.74809 20.2616 6.7507 21.8347 6.75135C21.9087 6.75135 21.9826 6.75135 22.0566 6.75135Z" fill="white"/>
<path d="M6.68238 13.8142C6.68238 13.1922 6.685 12.5709 6.68042 11.9489C6.67911 11.8128 6.70595 11.7451 6.86633 11.7503C7.46792 11.7711 8.07016 11.7444 8.67175 11.7789C9.21312 11.8095 9.62029 12.074 9.86512 12.5214C10.2526 13.2307 10.2435 13.9999 10.0255 14.758C9.81537 15.49 9.25894 15.83 8.53167 15.8801C7.96935 15.9192 7.40311 15.8919 6.83884 15.9023C6.67911 15.9049 6.67911 15.8163 6.67976 15.7017C6.68238 15.0725 6.68107 14.4434 6.68107 13.8142H6.68238ZM7.53534 13.8364H7.53665C7.53665 14.233 7.53862 14.6297 7.53534 15.0256C7.53469 15.1285 7.54909 15.2002 7.67871 15.1963C7.99357 15.1872 8.31041 15.2145 8.62266 15.1507C8.88974 15.096 9.05732 14.9481 9.17057 14.6883C9.35975 14.2545 9.34535 13.7986 9.27858 13.3687C9.19217 12.8125 9.02132 12.4875 8.29928 12.4726C8.1042 12.4687 7.90782 12.4791 7.7134 12.468C7.572 12.4595 7.53076 12.5116 7.53338 12.6471C7.53993 13.0438 7.536 13.4397 7.536 13.8364H7.53534Z" fill="white"/>
<path d="M2.82429 13.8254C2.82429 13.2119 2.82887 12.599 2.82101 11.9855C2.81905 11.8181 2.85374 11.7478 3.04424 11.7543C3.68248 11.7758 4.32139 11.7882 4.95964 11.7836C5.39954 11.781 5.93567 12.263 5.96447 12.6987C5.98607 13.0283 6.02469 13.3565 5.863 13.6581C5.67906 14.0013 5.40543 14.2097 4.99433 14.2696C4.61138 14.3256 4.23236 14.3289 3.85072 14.3243C3.72176 14.3224 3.68052 14.3628 3.68248 14.4898C3.68903 14.8936 3.68052 15.2974 3.68838 15.7012C3.69099 15.8386 3.66677 15.9135 3.50639 15.8985C3.29103 15.8783 3.01674 15.9864 2.87338 15.8594C2.72544 15.7279 2.82756 15.4511 2.82429 15.2381C2.81643 14.7672 2.82167 14.2957 2.82167 13.8248C2.82232 13.8248 2.82363 13.8248 2.82429 13.8248V13.8254ZM3.6851 13.0497C3.6851 13.1917 3.68772 13.3337 3.68445 13.4757C3.68183 13.5766 3.71521 13.6294 3.82715 13.6229C4.11911 13.6066 4.41369 13.6105 4.70368 13.5773C4.93411 13.5512 5.0827 13.3897 5.12591 13.1696C5.16519 12.969 5.13245 12.7821 4.95636 12.6244C4.7482 12.4382 4.50468 12.4896 4.27295 12.4812C3.68052 12.459 3.67987 12.4655 3.6851 13.0497Z" fill="white"/>
<path d="M10.8861 13.8166C10.8861 13.2024 10.8907 12.5889 10.8828 11.9747C10.8809 11.8171 10.9077 11.75 11.0897 11.752C11.9099 11.7598 12.7295 11.7539 13.5497 11.7461C13.6924 11.7448 13.7441 11.7819 13.7474 11.9337C13.7605 12.4736 13.7671 12.473 13.2237 12.4704C12.7949 12.4684 12.3662 12.4743 11.9374 12.4665C11.7875 12.4639 11.7168 12.4977 11.7286 12.6638C11.7423 12.8572 11.741 13.0533 11.7279 13.2474C11.7168 13.4108 11.7816 13.4486 11.9348 13.4454C12.3786 13.4362 12.8224 13.4486 13.2663 13.4382C13.4181 13.4349 13.4528 13.4831 13.4522 13.6271C13.4509 14.1481 13.4561 14.1481 12.9422 14.1475C12.6038 14.1468 12.2647 14.1546 11.9269 14.1383C11.7574 14.1299 11.7266 14.1917 11.7299 14.3422C11.7377 14.7987 11.7266 15.256 11.7358 15.7125C11.7391 15.8623 11.6939 15.9125 11.544 15.8962C11.3365 15.8734 11.07 15.9835 10.9326 15.8565C10.7931 15.7268 10.8972 15.4605 10.8894 15.254C10.8802 15.015 10.8887 14.7746 10.8894 14.5356C10.8894 14.2959 10.8894 14.0563 10.8894 13.8166H10.8867H10.8861Z" fill="white"/>
</svg>
