<svg width="13" height="12" viewBox="0 0 13 12" fill="none" xmlns="http://www.w3.org/2000/svg">
<path d="M2.36312 0.0229932C2.36869 0.0285159 2.37695 0.0306443 2.38457 0.0287913C2.93911 -0.10611 3.19657 0.250494 3.3829 0.734184C3.6717 1.47947 3.98938 2.19609 4.29262 2.92704C4.40815 3.18503 4.39371 3.41435 4.23486 3.62933C3.97494 3.97331 3.72946 4.31729 3.4551 4.64693C3.29626 4.84759 3.26738 5.03391 3.41178 5.2489C4.45147 7.01178 5.92436 8.27304 7.83045 9.03266C8.09037 9.13298 8.29253 9.08999 8.48025 8.875C8.79794 8.47369 9.13006 8.08672 9.4333 7.68541C9.60658 7.44176 9.82318 7.37009 10.0831 7.48475C10.9928 7.90039 11.9026 8.33037 12.7978 8.77467C12.9134 8.832 13 9.03266 13 9.16165C12.9856 10.5089 12.5812 11.1682 11.1228 11.7701C10.2997 12.1141 9.4333 12.0281 8.59577 11.7988C5.67887 10.9962 3.46954 9.23331 1.69341 6.86846C1.0436 6.00852 0.42268 5.13424 0.148318 4.07364C-0.212684 2.66906 0.076118 1.43647 1.1158 0.390206C1.46055 0.0480278 1.86246 -0.0388598 2.34995 0.016675C2.35492 0.0172402 2.35958 0.0194751 2.36312 0.0229932Z" fill="white"/>
</svg>
