<svg width="60" height="65" viewBox="0 0 60 65" fill="none" xmlns="http://www.w3.org/2000/svg">
<path d="M33.9362 64.0409C27.0388 64.0409 20.1414 64.0017 13.2457 64.0623C10.9627 64.0819 8.61801 62.416 8.13177 59.6544C8.08181 59.3729 8.06849 59.0824 8.06849 58.7956C8.06682 51.5708 8.06349 44.3477 8.07182 37.1229C8.07515 34.4699 10.3415 32.0344 12.8144 32.0344C26.8989 32.029 40.9851 32.0308 55.0696 32.0379C57.674 32.0379 59.9104 34.4379 59.9138 37.2316C59.9221 44.4564 59.9204 51.6795 59.9138 58.9043C59.9104 61.6089 57.6724 64.0213 55.1296 64.0285C48.0656 64.0445 41.0034 64.0338 33.9395 64.0338V64.0409H33.9362ZM33.9295 61.9082C40.8236 61.9082 47.7193 61.9082 54.6133 61.9082C56.6582 61.9082 57.9221 60.5773 57.9221 58.3983C57.9255 51.4888 57.9221 44.5776 57.9238 37.6681C57.9238 35.5247 56.6666 34.1653 54.6733 34.1653C40.9052 34.1653 27.137 34.1653 13.3689 34.1671C11.2907 34.1671 10.0568 35.4998 10.0568 37.7394C10.0568 44.5829 10.0568 51.4264 10.0568 58.27C10.0568 60.5915 11.2757 61.9064 13.4339 61.9082C20.2663 61.9082 27.0987 61.9082 33.9312 61.9082H33.9295Z" fill="#4B4F53"/>
<path d="M0.0880563 27.7112C0.0880563 20.31 0.128022 12.907 0.0680735 5.50755C0.0414299 2.27375 2.64918 -0.0299938 5.22196 0.000295182C11.7846 0.080472 18.3506 0.0662183 24.915 0.0109854C27.5194 -0.0121768 30.0356 2.2987 30.0172 5.49686C29.9706 13.1867 30.0023 20.8766 30.0056 28.5682C30.0056 28.9299 30.0006 29.272 29.7391 29.5552C29.4477 29.8724 29.1014 29.9757 28.7167 29.8546C28.327 29.7316 28.0872 29.4287 28.024 28.9976C27.994 28.8016 28.0123 28.5985 28.0123 28.3989C28.0123 20.8195 28.0123 13.2402 28.0123 5.66078C28.0123 3.53342 26.7367 2.15972 24.7518 2.15972C18.2707 2.15972 11.7896 2.15972 5.30855 2.15972C3.35857 2.15972 2.083 3.52807 2.083 5.62514C2.08134 20.4062 2.083 35.1854 2.083 49.9665C2.083 51.8943 3.24367 53.2163 5.05377 53.3713C5.69156 53.4265 6.07789 53.8399 6.06956 54.4617C6.06124 55.0728 5.64326 55.4809 5.00715 55.4987C2.45768 55.5682 0.0980477 53.1308 0.093052 50.3798C0.0813954 42.8236 0.0897215 35.2656 0.0897215 27.7094L0.0880563 27.7112Z" fill="#4B4F53"/>
<path d="M36.0418 8.69793L34.9811 8.56608C34.4282 8.4966 34.0103 7.99594 34.0103 7.39907C34.0103 6.68638 34.5997 6.1394 35.2592 6.23561C36.255 6.38171 36.8744 6.5385 36.8744 6.5385C46.3113 8.68011 51.9548 14.8038 53.8814 24.997C54.2678 24.3413 54.6408 23.7248 54.9988 23.0995C55.167 22.8073 55.3502 22.5311 55.6766 22.458C56.0795 22.369 56.4642 22.4117 56.7406 22.8073C57.0037 23.1832 57.0587 23.6073 56.8389 23.9939C55.9563 25.5493 55.0621 27.0976 54.1329 28.621C53.8481 29.0878 53.3669 29.2695 52.8756 28.947C51.4086 27.9849 49.9482 27.0157 48.5077 26.0108C48.0215 25.6705 47.9649 25.0985 48.2596 24.6014C48.551 24.1133 49.0956 23.9529 49.6151 24.2665C50.3312 24.6994 51.0256 25.1769 51.7566 25.6544C51.0822 16.5998 43.3888 9.5193 36.4115 8.75673L36.0418 8.69971V8.69793Z" fill="#4B4F53"/>
<path d="M15.1059 4.29517C16.0384 4.29517 16.971 4.28983 17.9035 4.29517C18.6212 4.30052 19.0442 4.721 19.0308 5.3927C19.0175 6.0163 18.5879 6.41719 17.9002 6.41897C15.9935 6.42431 14.0868 6.42609 12.1818 6.41897C11.4607 6.41719 11.0461 5.9967 11.0594 5.31609C11.0711 4.67646 11.4824 4.29695 12.1851 4.29339C13.1592 4.28805 14.1334 4.29339 15.1076 4.29339L15.1059 4.29517Z" fill="#4B4F53"/>
<path d="M53.9368 48.0392C53.9368 47.0183 53.9335 45.9956 53.9368 44.9747C53.9401 44.2424 54.3165 43.7863 54.9093 43.7756C55.5321 43.7649 55.9234 44.2246 55.9251 44.9996C55.9301 47.0201 55.9301 49.0423 55.9251 51.0628C55.9251 51.8289 55.5288 52.3028 54.9176 52.2975C54.2981 52.2921 53.9418 51.8396 53.9368 51.036C53.9318 50.0365 53.9368 49.0369 53.9368 48.0374V48.0392Z" fill="#4B4F53"/>
</svg>
