<svg width="19" height="19" viewBox="0 0 19 19" fill="none" xmlns="http://www.w3.org/2000/svg">
<path d="M0.0424524 18.1478C0.0391563 18.1446 0.037876 18.1398 0.0391082 18.1354C0.20435 17.5395 0.369551 16.9637 0.524466 16.3879C0.783699 15.475 1.04293 14.5521 1.29179 13.6392C1.31253 13.5581 1.30216 13.4364 1.26069 13.3552C-0.626526 9.96759 -0.180646 5.94096 2.43242 3.04016C4.02929 1.2652 6.0513 0.250935 8.46735 0.037939C12.5217 -0.317054 16.2028 1.84333 17.8101 5.50482C19.3447 9.00404 18.3493 13.2335 15.4148 15.7388C13.9942 16.9457 12.3558 17.6963 10.4894 17.9296C8.59178 18.1628 6.79789 17.8484 5.09733 16.9964C4.97289 16.9356 4.8692 16.9153 4.7344 16.9559C3.24122 17.3413 1.74804 17.7267 0.254865 18.1121C0.194372 18.1319 0.133879 18.1324 0.0543233 18.1511C0.0500662 18.1521 0.0455782 18.1508 0.0424524 18.1478ZM2.24577 15.9935C2.24577 15.9985 2.24978 16.0025 2.25472 16.0024C2.29441 16.0014 2.32113 15.9943 2.34024 15.9864C2.34646 15.9838 2.35276 15.9813 2.3593 15.9797C3.20622 15.7675 4.04294 15.5452 4.88994 15.3229C5.06622 15.2722 5.20102 15.2925 5.35656 15.3838C7.18155 16.4386 9.13098 16.7327 11.1841 16.2357C15.0622 15.2925 17.5301 11.5498 16.8457 7.69564C16.2339 4.25728 13.258 1.6709 9.71166 1.50862C7.78297 1.41734 6.0513 1.9549 4.54775 3.14159C2.78497 4.53113 1.82063 6.35681 1.67546 8.5679C1.57177 10.2009 1.99691 11.702 2.9094 13.0712C2.99236 13.1929 3.00273 13.2944 2.96125 13.4364C2.72286 14.2778 2.48447 15.1193 2.24609 15.9912C2.24588 15.9919 2.24577 15.9927 2.24577 15.9935Z" fill="white"/>
<path d="M6.33659 4.83855C6.34059 4.84245 6.34648 4.84396 6.35191 4.84266C6.75017 4.74715 6.93507 4.99951 7.06888 5.34183C7.27626 5.86924 7.50439 6.37638 7.72214 6.89365C7.8051 7.07622 7.79473 7.2385 7.68066 7.39064C7.49402 7.63406 7.31774 7.87749 7.12072 8.11077C7.00666 8.25277 6.98592 8.38462 7.08962 8.53676C7.8362 9.78431 8.89387 10.6769 10.2626 11.2144C10.4493 11.2854 10.5944 11.255 10.7292 11.1028C10.9574 10.8189 11.1959 10.545 11.4136 10.261C11.538 10.0886 11.6936 10.0379 11.8802 10.119C12.5335 10.4131 13.1868 10.7174 13.8297 11.0319C13.9126 11.0724 13.9748 11.2144 13.9748 11.3057C13.9645 12.2591 13.6741 12.7257 12.6268 13.1517C12.0358 13.3951 11.4136 13.3342 10.8122 13.1719C8.7176 12.604 7.13109 11.3564 5.85567 9.68288C5.38905 9.07432 4.94317 8.45562 4.74615 7.70506C4.48692 6.71108 4.69431 5.83882 5.4409 5.0984C5.68846 4.85625 5.97708 4.79476 6.32716 4.83407C6.3307 4.83447 6.33404 4.83605 6.33659 4.83855Z" fill="white"/>
</svg>
