<svg width="29" height="29" viewBox="0 0 29 29" fill="none" xmlns="http://www.w3.org/2000/svg">
<circle cx="14.5" cy="14.5" r="14.5" fill="#57C35A"/>
<path d="M7.05888 21.2786C7.05629 21.2761 7.05529 21.2724 7.05625 21.2689C7.18577 20.8019 7.31525 20.3506 7.43667 19.8992C7.63985 19.1838 7.84303 18.4604 8.03809 17.7449C8.05434 17.6813 8.04622 17.5859 8.01371 17.5223C6.53454 14.8671 6.88401 11.7111 8.93209 9.43752C10.1837 8.04633 11.7685 7.25137 13.6622 7.08442C16.8399 6.80619 19.7251 8.49946 20.9849 11.3693C22.1877 14.1119 21.4075 17.4269 19.1075 19.3905C17.994 20.3365 16.7099 20.9247 15.247 21.1076C13.7597 21.2904 12.3537 21.044 11.0208 20.3762C10.9233 20.3285 10.842 20.3126 10.7363 20.3444C9.56602 20.6465 8.39569 20.9486 7.22536 21.2507C7.17795 21.2661 7.13053 21.2666 7.06818 21.2812C7.06484 21.282 7.06133 21.281 7.05888 21.2786ZM8.7858 19.5901C8.7858 19.594 8.78894 19.5972 8.79281 19.5971C8.82392 19.5963 8.84486 19.5908 8.85984 19.5845C8.86472 19.5825 8.86966 19.5806 8.87478 19.5793C9.53859 19.413 10.1944 19.2387 10.8583 19.0645C10.9964 19.0248 11.1021 19.0407 11.224 19.1122C12.6544 19.939 14.1823 20.1695 15.7915 19.78C18.8311 19.0407 20.7654 16.1073 20.229 13.0864C19.7495 10.3915 17.417 8.36432 14.6374 8.23712C13.1258 8.16557 11.7685 8.58691 10.5901 9.51701C9.20842 10.6061 8.45258 12.037 8.3388 13.7701C8.25753 15.05 8.59074 16.2265 9.30595 17.2997C9.37096 17.3951 9.37909 17.4746 9.34658 17.5859C9.15974 18.2454 8.97289 18.905 8.78605 19.5883C8.78588 19.5889 8.7858 19.5895 8.7858 19.5901Z" fill="white"/>
<path d="M11.9921 10.8477C11.9953 10.8508 11.9999 10.852 12.0042 10.8509C12.3163 10.7761 12.4612 10.9739 12.5661 11.2422C12.7286 11.6556 12.9074 12.053 13.0781 12.4585C13.1431 12.6016 13.135 12.7288 13.0456 12.848C12.8993 13.0388 12.7612 13.2296 12.6067 13.4124C12.5173 13.5237 12.5011 13.6271 12.5824 13.7463C13.1675 14.7241 13.9965 15.4237 15.0693 15.845C15.2156 15.9007 15.3294 15.8768 15.435 15.7576C15.6138 15.535 15.8008 15.3203 15.9714 15.0978C16.069 14.9626 16.1909 14.9229 16.3372 14.9865C16.8492 15.217 17.3612 15.4555 17.8651 15.7019C17.9301 15.7337 17.9789 15.845 17.9789 15.9166C17.9707 16.6638 17.7432 17.0295 16.9223 17.3634C16.4591 17.5542 15.9714 17.5065 15.5 17.3793C13.8583 16.9341 12.6149 15.9563 11.6152 14.6446C11.2495 14.1677 10.9 13.6827 10.7456 13.0945C10.5424 12.3154 10.705 11.6317 11.2901 11.0514C11.4842 10.8616 11.7104 10.8134 11.9847 10.8442C11.9875 10.8445 11.9901 10.8458 11.9921 10.8477Z" fill="white"/>
</svg>
